<?xml version="1.0" encoding="utf-8"?>
<!-- Generator: Adobe Illustrator 26.1.0, SVG Export Plug-In . SVG Version: 6.00 Build 0)  -->
<svg version="1.1" id="Layer_1" xmlns="http://www.w3.org/2000/svg" xmlns:xlink="http://www.w3.org/1999/xlink" x="0px" y="0px"
	 viewBox="0 0 595.3 218.1" style="enable-background:new 0 0 595.3 218.1;" xml:space="preserve">
<style type="text/css">
	.st0{fill:#1C2856;}
	.st1{fill:#00B2E3;}
	.st2{fill:#021D49;}
	.st3{fill:none;}
</style>
<g>
	<path class="st0" d="M263.3,66h-14.6l-4.1,9.7h-4.2l15.8-35.9l15.3,35.9h-4.2L263.3,66z M261.8,62.4l-5.7-13.7l-5.9,13.7H261.8z"/>
	<path class="st0" d="M291.7,54.4h3.7v20.8c0,2.3,0,5.6-2.1,8.4c-1.6,2.2-4.5,4-8.5,4c-3.6,0-6.2-1.4-7.6-2.9
		c-1.4-1.4-2.8-3.8-2.8-6.9h3.6c0,1.8,0.7,3.4,1.6,4.4c1.5,1.7,3.5,2.1,5.1,2.1c2.6,0,4.4-0.9,5.6-3c1.1-1.7,1.2-3.6,1.2-5.4v-3.1
		c-1.2,1.6-3.5,3.6-7.3,3.6c-3.1,0-5.6-1.2-7.3-2.9c-1.4-1.4-3.1-4.1-3.1-8.4c0-4.2,1.5-6.7,3.1-8.3c1.8-1.7,4.4-2.9,7.3-2.9
		c3.1,0,5.6,1.3,7.3,3.5V54.4z M280,59.1c-1.8,1.8-2.2,4.1-2.2,5.9c0,1.8,0.4,4.4,2.4,6.3c1.2,1.1,2.6,1.7,4.6,1.7
		c2,0,3.5-0.6,4.7-1.8c1.4-1.4,2.4-3.6,2.4-6.2c0-2.5-0.9-4.7-2.3-6c-1.2-1.2-2.9-1.9-4.8-1.9C282.6,57.1,281.1,58.1,280,59.1"/>
	<path class="st0" d="M321.3,70.2c-0.6,1.2-1.5,2.5-2.6,3.4c-1.9,1.7-4.4,2.6-7.1,2.6c-5.1,0-10.5-3.2-10.5-11.1
		c0-6.4,3.9-11.3,10.3-11.3c4.2,0,6.8,2.1,8.1,3.9c1.3,1.9,2.1,5.2,2,8h-16.6c0.1,4.4,3.1,7.2,6.8,7.2c1.7,0,3.1-0.5,4.4-1.5
		c1-0.8,1.7-1.9,2.2-2.9L321.3,70.2z M317.7,62.7c-0.6-3.3-3.1-5.5-6.3-5.5c-3.1,0-5.7,2.4-6.3,5.5H317.7z"/>
	<path class="st0" d="M327.1,54.4h3.7v2.5c0.7-0.9,2.6-3,6.1-3c2.5,0,4.8,1,6.1,2.9c1.1,1.6,1.2,3.3,1.2,5.7v13.2h-3.7V62.6
		c0-1.3-0.1-2.8-1-3.9c-0.7-0.9-1.8-1.5-3.5-1.5c-1.3,0-2.7,0.4-3.7,1.6c-1.4,1.7-1.5,4.2-1.5,5.7v11.1h-3.7V54.4z"/>
	<path class="st0" d="M367.9,60.3c-2-2.5-4.8-3.2-6.7-3.2c-4,0-7.5,2.8-7.5,8c0,5.2,3.7,7.9,7.5,7.9c2.2,0,4.9-1,6.9-3.3v4.4
		c-2.3,1.7-4.8,2.2-6.8,2.2c-6.6,0-11.4-4.7-11.4-11.1c0-6.5,4.8-11.3,11.4-11.3c3.4,0,5.6,1.3,6.6,2.1V60.3z"/>
	<path class="st0" d="M375.6,43.7c1.4,0,2.6,1.2,2.6,2.6c0,1.4-1.2,2.6-2.6,2.6c-1.4,0-2.6-1.2-2.6-2.6
		C372.9,44.9,374.1,43.7,375.6,43.7 M377.4,75.7h-3.7V54.4h3.7V75.7z"/>
	<path class="st0" d="M400.7,54.4h3.7v21.3h-3.7v-3c-1.2,1.6-3.5,3.6-7.3,3.6c-5.4,0-10.4-3.8-10.4-11.3c0-7.3,4.9-11.1,10.4-11.1
		c4.1,0,6.3,2.3,7.3,3.5V54.4z M386.8,65c0,4.6,2.6,8,7,8c4.5,0,7.1-3.7,7.1-8c0-5.5-3.8-7.9-7.1-7.9
		C390.2,57.1,386.8,59.8,386.8,65"/>
	<polygon class="st0" points="244.4,126.8 244.4,91.1 271.1,119.1 271.1,92.5 274.9,92.5 274.9,128.3 248.2,100.3 248.2,126.8 	"/>
	<path class="st0" d="M299.1,105.5h3.7v21.3h-3.7v-3c-1.2,1.6-3.5,3.6-7.3,3.6c-5.4,0-10.4-3.8-10.4-11.3c0-7.3,4.9-11.1,10.4-11.1
		c4.1,0,6.3,2.3,7.3,3.5V105.5z M285.3,116.1c0,4.6,2.6,8,7,8c4.5,0,7.1-3.7,7.1-8c0-5.5-3.8-7.9-7.1-7.9
		C288.6,108.2,285.3,110.9,285.3,116.1"/>
	<path class="st0" d="M326.5,111.4c-2-2.5-4.8-3.2-6.7-3.2c-4,0-7.5,2.8-7.5,8c0,5.2,3.7,7.9,7.5,7.9c2.2,0,4.9-1,6.9-3.3v4.4
		c-2.3,1.7-4.8,2.2-6.8,2.2c-6.6,0-11.4-4.7-11.4-11.1c0-6.5,4.8-11.3,11.4-11.3c3.4,0,5.6,1.3,6.6,2.1V111.4z"/>
	<path class="st0" d="M334.1,94.8c1.4,0,2.6,1.2,2.6,2.6c0,1.4-1.2,2.6-2.6,2.6c-1.4,0-2.6-1.2-2.6-2.6
		C331.5,96,332.7,94.8,334.1,94.8 M336,126.8h-3.7v-21.3h3.7V126.8z"/>
	<path class="st0" d="M341.6,116.2c0-6.5,4.8-11.2,11.3-11.2c6.5,0,11.3,4.8,11.3,11.2c0,6.5-4.8,11.2-11.3,11.2
		C346.5,127.4,341.6,122.7,341.6,116.2 M345.4,116.2c0,5.2,3.7,7.9,7.5,7.9c3.8,0,7.5-2.7,7.5-7.9c0-5.2-3.6-8-7.5-8
		C349,108.2,345.4,111,345.4,116.2"/>
	<path class="st0" d="M369.9,105.5h3.7v2.5c0.7-0.9,2.6-3,6.1-3c2.5,0,4.8,1,6.1,2.9c1.1,1.6,1.2,3.3,1.2,5.7v13.2h-3.7v-13.1
		c0-1.3-0.1-2.8-1-3.9c-0.7-0.9-1.8-1.5-3.5-1.5c-1.3,0-2.7,0.4-3.7,1.6c-1.4,1.7-1.5,4.2-1.5,5.7v11.1h-3.7V105.5z"/>
	<path class="st0" d="M410.3,105.5h3.7v21.3h-3.7v-3c-1.2,1.6-3.5,3.6-7.3,3.6c-5.4,0-10.4-3.8-10.4-11.3c0-7.3,4.9-11.1,10.4-11.1
		c4.1,0,6.3,2.3,7.3,3.5V105.5z M396.4,116.1c0,4.6,2.6,8,7,8c4.5,0,7.1-3.7,7.1-8c0-5.5-3.8-7.9-7.1-7.9
		C399.8,108.2,396.4,110.9,396.4,116.1"/>
	<rect x="421" y="89.4" class="st0" width="3.7" height="37.4"/>
	<path class="st0" d="M459.9,89.4h3.7v37.4h-3.7v-3c-1.2,1.6-3.5,3.6-7.3,3.6c-5.4,0-10.4-3.8-10.4-11.3c0-7.3,4.9-11.1,10.4-11.1
		c4.1,0,6.3,2.3,7.3,3.5V89.4z M446.1,116.1c0,4.6,2.6,8,7,8c4.5,0,7.1-3.7,7.1-8c0-5.5-3.8-7.9-7.1-7.9
		C449.4,108.2,446.1,110.9,446.1,116.1"/>
	<path class="st0" d="M489.5,121.3c-0.6,1.2-1.5,2.5-2.6,3.4c-1.9,1.7-4.4,2.6-7.1,2.6c-5.1,0-10.5-3.2-10.5-11.1
		c0-6.4,3.9-11.3,10.3-11.3c4.2,0,6.8,2.1,8.1,3.9c1.3,1.9,2.1,5.2,2,8h-16.6c0.1,4.4,3.1,7.2,6.8,7.2c1.7,0,3.1-0.5,4.4-1.5
		c1-0.8,1.7-1.9,2.2-2.9L489.5,121.3z M485.9,113.8c-0.6-3.3-3.1-5.5-6.3-5.5c-3.1,0-5.7,2.4-6.3,5.5H485.9z"/>
	<path class="st1" d="M261.4,152c-2.6-2.3-4.8-2.5-5.7-2.5c-1.1,0-2.4,0.2-3.3,1.2c-0.5,0.5-0.9,1.3-0.9,2.2c0,0.8,0.3,1.4,0.8,1.9
		c0.8,0.8,2,1.1,4.3,2l2.6,1c1.5,0.6,3.3,1.3,4.7,2.6c2,1.9,2.5,4.4,2.5,6.4c0,3.5-1.2,6.6-3,8.5c-3,3.2-7.4,3.5-9.7,3.5
		c-2.5,0-4.6-0.4-6.8-1.4c-1.7-0.9-3.7-2.5-5-3.7l4.1-5.6c0.9,0.9,2.3,2.1,3.2,2.6c1.3,0.8,2.7,1.2,4.3,1.2c1,0,2.5-0.2,3.6-1.2
		c0.7-0.6,1.2-1.5,1.2-2.8c0-1.1-0.5-1.8-1.2-2.5c-0.9-0.8-3-1.5-4-1.9l-2.8-1c-1.6-0.6-3.4-1.3-4.8-2.7c-1.8-1.9-2.1-4.3-2.1-6
		c0-3,0.9-5.6,3-7.7c2.4-2.5,5.3-3.1,8.5-3.1c2.4,0,6.2,0.4,10.2,3.4L261.4,152z"/>
	<path class="st1" d="M294.6,167.7h-17.1c0,1.2,0.5,2.9,1.4,3.9c1.1,1.2,2.7,1.4,3.8,1.4c1.1,0,2.2-0.2,3-0.7c0.1-0.1,1-0.6,1.6-1.9
		l7,0.7c-1,3.2-3.1,4.9-4.4,5.8c-2.2,1.3-4.7,1.7-7.2,1.7c-3.4,0-6.5-0.6-9.1-3.3c-2-2-3.4-5-3.4-8.8c0-3.3,1.2-6.7,3.5-9
		c2.8-2.8,6.2-3.3,8.8-3.3c2.6,0,6.3,0.5,9.1,3.4c2.7,2.9,3.2,6.5,3.2,9.3V167.7z M287.7,163.3c0-0.2-0.4-1.6-1.5-2.7
		c-0.8-0.8-2-1.3-3.5-1.3c-1.9,0-3,0.8-3.8,1.5c-0.6,0.6-1.1,1.4-1.3,2.5H287.7z"/>
	<path class="st1" d="M316.6,155h7.4v21.5c0,3.2-0.2,6.9-2.8,9.8c-2.8,3-7.1,3.4-9.7,3.4c-3,0-6.7-0.5-9.5-2.9
		c-1.4-1.2-2.9-3.2-3.4-6.1h8.1c0.3,1.2,1,1.8,1.6,2.3c0.9,0.6,2.1,0.8,3.2,0.8c2.1,0,3.2-0.8,3.7-1.2c1.4-1.4,1.5-3.8,1.5-4.8v-2.6
		c-0.9,1.4-2.6,3.4-6.8,3.4c-3.5,0-6.3-1.1-8.4-3.2c-1.8-1.9-3.3-4.7-3.3-8.6c0-3.9,1.4-7.1,3.4-9.1c1.4-1.4,4.1-3.3,8.3-3.3
		c4.2,0,6,2.2,6.8,3.4V155z M307.4,162.1c-1.1,1.1-1.7,2.9-1.7,4.3c0,1.5,0.6,3,1.6,4.1c1,1.1,2.4,1.6,4.2,1.6c2,0,3.2-0.8,4-1.5
		c1.1-1.1,1.8-2.7,1.8-4.4c0-1.8-0.8-3.3-1.7-4.2c-1.1-1-2.7-1.4-4-1.4C309.8,160.6,308.3,161.3,307.4,162.1"/>
	<path class="st1" d="M337.1,155v12.6c0,1,0.1,2.6,1.3,3.7c0.5,0.5,1.4,1.1,3.1,1.1c1.4,0,2.5-0.5,3.1-1.1c1.1-1,1.2-2.6,1.2-3.7
		V155h7.4v13.3c0,2.6-0.3,5.1-2.6,7.3c-2.6,2.6-6.5,3-9.2,3c-2.8,0-6.6-0.4-9.2-3c-2.1-2.1-2.5-4.4-2.5-6.9V155H337.1z"/>
	<path class="st1" d="M359,155h7.4v3.6c0.7-1.3,1.7-2.5,2.9-3.2c1.2-0.8,2.5-1,4-1c0.9,0,1.6,0.1,2.4,0.4l-0.4,6.9
		c-1-0.5-2.1-0.8-3.3-0.8c-1.6,0-2.8,0.6-3.7,1.5c-1.6,1.7-1.8,4.2-1.8,6.2v9.3H359V155z"/>
	<path class="st1" d="M382.9,140.9c2.4,0,4.3,1.9,4.3,4.3c0,2.4-1.9,4.3-4.3,4.3c-2.4,0-4.3-1.9-4.3-4.3
		C378.6,142.8,380.5,140.9,382.9,140.9 M386.6,177.9h-7.4V155h7.4V177.9z"/>
	<path class="st1" d="M417.8,177.9h-7.4v-2.8c-1.1,1.6-3.2,3.5-7.2,3.5c-3.4,0-5.8-1.1-7.9-3.1c-2.4-2.4-3.6-5.6-3.6-9.2
		c0-3.8,1.4-6.9,3.6-9c2-1.9,4.8-3.1,8-3.1c2.5,0,5.3,0.8,7.1,3.3v-17.1h7.4V177.9z M401.1,162.1c-1.1,1-1.8,2.5-1.8,4.4
		c0,1.7,0.7,3.2,1.8,4.2c1.1,1.1,2.6,1.6,3.9,1.6c1.4,0,3-0.6,4.2-1.7c0.9-0.8,1.7-2.2,1.7-4.1c0-2-0.8-3.3-1.6-4.2
		c-1.2-1.2-2.6-1.7-4.2-1.7C403.6,160.6,402.3,161,401.1,162.1"/>
	<path class="st1" d="M441.3,155h7.4v22.9h-7.4v-2.8c-2,3.1-4.9,3.5-6.8,3.5c-3.3,0-6.1-0.8-8.6-3.5c-2.4-2.6-3.3-5.5-3.3-8.6
		c0-3.8,1.4-7.1,3.5-9.2c2-2,4.8-3.1,8-3.1c2,0,5.1,0.5,7.2,3.3V155z M431.9,162.2c-0.8,0.8-1.7,2.1-1.7,4.2c0,2.1,0.9,3.4,1.5,4.1
		c1,1.1,2.6,1.8,4.4,1.8c1.5,0,2.9-0.6,3.8-1.6c1-0.9,1.8-2.4,1.8-4.3c0-1.6-0.6-3.2-1.7-4.2c-1.1-1.1-2.8-1.6-4.1-1.6
		C434.4,160.6,432.9,161.3,431.9,162.2"/>
	<path class="st1" d="M479.4,177.9H472v-2.8c-1.1,1.6-3.2,3.5-7.2,3.5c-3.4,0-5.8-1.1-7.9-3.1c-2.4-2.4-3.6-5.6-3.6-9.2
		c0-3.8,1.4-6.9,3.6-9c2-1.9,4.8-3.1,8-3.1c2.5,0,5.3,0.8,7.1,3.3v-17.1h7.4V177.9z M462.7,162.1c-1.1,1-1.8,2.5-1.8,4.4
		c0,1.7,0.7,3.2,1.8,4.2c1.1,1.1,2.6,1.6,3.9,1.6c1.4,0,3-0.6,4.2-1.7c0.9-0.8,1.7-2.2,1.7-4.1c0-2-0.8-3.3-1.6-4.2
		c-1.2-1.2-2.6-1.7-4.2-1.7C465.2,160.6,463.9,161,462.7,162.1"/>
	<polygon class="st1" points="503.2,143.7 511.8,165.6 520.5,143.7 529,143.7 514.5,177.9 509.2,177.9 494.6,143.7 	"/>
	<path class="st1" d="M536.3,140.9c2.4,0,4.3,1.9,4.3,4.3c0,2.4-1.9,4.3-4.3,4.3c-2.4,0-4.3-1.9-4.3-4.3
		C532,142.8,533.9,140.9,536.3,140.9 M540,177.9h-7.4V155h7.4V177.9z"/>
	<path class="st1" d="M563.8,155h7.4v22.9h-7.4v-2.8c-2,3.1-4.9,3.5-6.8,3.5c-3.3,0-6.1-0.8-8.6-3.5c-2.4-2.6-3.3-5.5-3.3-8.6
		c0-3.8,1.4-7.1,3.5-9.2c2-2,4.8-3.1,8-3.1c2,0,5.1,0.5,7.2,3.3V155z M554.4,162.2c-0.8,0.8-1.7,2.1-1.7,4.2c0,2.1,0.9,3.4,1.5,4.1
		c1,1.1,2.6,1.8,4.4,1.8c1.5,0,2.9-0.6,3.8-1.6c1-0.9,1.8-2.4,1.8-4.3c0-1.6-0.6-3.2-1.7-4.2c-1.1-1.1-2.8-1.6-4.1-1.6
		C556.9,160.6,555.4,161.3,554.4,162.2"/>
	<rect x="577.2" y="140.5" class="st1" width="7.4" height="37.4"/>
	<path class="st2" d="M123,206.8c-5.8,0-10.5-4.7-10.5-10.5c0-5.8,4.7-10.5,10.5-10.5c2.7,0,6.5-0.9,8.9-5.2l42.6-72.4
		c1.2-2.1,1.5-4.5,0.9-6.9c-0.6-2.4-2.2-4.4-4.3-5.6c-2.1-1.2-4.6-1.6-7-0.9c-2.4,0.6-4.4,2.2-5.6,4.3c-2.9,5-9.4,6.8-14.4,3.9
		c-5-2.9-6.8-9.4-3.9-14.4c4-7,10.6-12,18.4-14.1c7.8-2.1,16-1,23,3c7,4,12,10.6,14.1,18.4c2.1,7.8,1,16-3,23l-42.6,72.4
		C144.6,201,134.4,206.8,123,206.8"/>
	<path class="st1" d="M51.8,104.3c-4,0-7.9-2.3-9.6-6.2c-3.7-8.2-5.5-17-5.5-26.1c0-35.3,28.7-64,64-64c5.8,0,10.5,4.7,10.5,10.5
		S106.5,29,100.6,29c-23.7,0-43,19.3-43,42.9c0,6.1,1.2,12,3.7,17.5c2.4,5.3,0,11.6-5.3,13.9C54.7,104,53.2,104.3,51.8,104.3"/>
	<path class="st2" d="M123,206.8c-11.4,0-21.5-5.9-27.2-15.7L42.6,99c-2.9-5-1.2-11.5,3.9-14.4c5-2.9,11.5-1.2,14.4,3.9l53.2,92.1
		c2.5,4.3,6.2,5.2,8.9,5.2c5.8,0,10.5,4.7,10.5,10.5C133.6,202.1,128.8,206.8,123,206.8"/>
	<path class="st1" d="M78.2,206.8c-11.4,0-21.5-5.9-27.2-15.7l-35.3-59.6c-3-5-1.3-11.5,3.7-14.4c5-3,11.5-1.3,14.4,3.7l35.4,59.7
		c2.5,4.4,6.3,5.3,9,5.3c2.7,0,6.5-0.9,8.9-5.2l53.2-92.1c2.9-5,9.4-6.8,14.4-3.9c5,2.9,6.8,9.4,3.9,14.4l-53.2,92.1
		C99.7,201,89.5,206.8,78.2,206.8"/>
	<path class="st2" d="M24.8,136.7c-3.6,0-7.2-1.9-9.1-5.3l-7.3-12.6C0,104.3,5,85.8,19.5,77.4c7-4.1,15.2-5.1,23-3
		c7.8,2.1,14.4,7.1,18.4,14.1c2.9,5,1.2,11.5-3.9,14.4c-5,2.9-11.5,1.2-14.4-3.9c-1.2-2.1-3.2-3.7-5.6-4.3c-2.4-0.6-4.9-0.3-7,0.9
		c-4.4,2.5-5.9,8.2-3.4,12.6l7.3,12.6c2.9,5,1.2,11.5-3.9,14.4C28.4,136.2,26.6,136.7,24.8,136.7"/>
	<path class="st1" d="M149.4,104.3c-1.4,0-2.9-0.3-4.3-0.9c-5.3-2.4-7.7-8.6-5.3-13.9c2.5-5.6,3.8-11.5,3.8-17.5
		c0-23.7-19.3-42.9-42.9-42.9c-5.8,0-10.5-4.7-10.5-10.5S94.8,8,100.6,8c35.3,0,64,28.7,64,64c0,9-1.9,17.7-5.6,26.1
		C157.3,102,153.5,104.3,149.4,104.3"/>
</g>
<rect x="-8.5" y="-297.7" class="st3" width="612" height="792"/>
</svg>
