<?xml version="1.0" encoding="utf-8"?>
<!-- Generator: Adobe Illustrator 27.0.0, SVG Export Plug-In . SVG Version: 6.00 Build 0)  -->
<svg version="1.1" id="Layer_1" xmlns="http://www.w3.org/2000/svg" xmlns:xlink="http://www.w3.org/1999/xlink" x="0px" y="0px"
	 viewBox="0 0 489.66 164.22" style="enable-background:new 0 0 489.66 164.22;" xml:space="preserve">
<style type="text/css">
	.st0{fill:#FFC50B;}
	.st1{fill-rule:evenodd;clip-rule:evenodd;fill:#4E4D4D;}
	.st2{opacity:0.6;}
</style>
<rect x="14.16" y="69.68" class="st0" width="401.58" height="22.62"/>
<path class="st1" d="M57.06,77.21c3.82-1.12,7.11-2.75,9.85-4.84c2.75-2.1,4.85-4.6,6.3-7.51c1.43-2.91,2.17-6.19,2.17-9.81
	c0-5.47-1.76-9.87-5.21-13.25c-3.46-3.34-8.74-5.78-15.81-7.3l-12.22-2.6c-3.8-0.78-6.44-1.83-7.92-3.11
	c-1.52-1.28-2.27-3.01-2.27-5.1c0-1.86,0.54-3.51,1.66-4.97c1.12-1.42,2.75-2.54,4.88-3.35c2.14-0.78,4.71-1.18,7.75-1.18
	c2.81,0,5.56,0.31,8.23,0.88c2.68,0.58,5.22,1.46,7.62,2.67c1.93,0.95,3.59,1.29,4.98,0.98c1.35-0.27,2.5-0.91,3.42-1.93
	c0.88-1.01,1.42-2.16,1.62-3.51c0.17-1.35,0-2.67-0.54-4.02C71.01,7.93,70,6.81,68.58,5.93c-2.98-1.86-6.44-3.28-10.33-4.26
	c-3.89-0.95-7.86-1.46-11.88-1.46c-4.57,0-8.74,0.58-12.54,1.73c-3.79,1.15-7.07,2.8-9.82,4.97c-2.74,2.16-4.88,4.73-6.4,7.71
	s-2.26,6.26-2.26,9.84c0,5.68,1.66,10.28,5.05,13.79c3.35,3.52,8.49,5.98,15.43,7.4l12.26,2.6c3.96,0.88,6.74,1.93,8.33,3.15
	c1.59,1.21,2.4,2.87,2.4,4.97c0,2.43-1.16,4.46-3.39,6.08c-2.23,1.63-5.99,2.44-11.24,2.44c-3.49,0-6.98-0.38-10.46-1.18
	c-3.52-0.79-6.74-2-9.72-3.69c-1.72-0.84-3.29-1.12-4.71-0.78s-2.58,1.05-3.46,2.17c-0.91,1.12-1.45,2.4-1.62,3.82
	c-0.21,1.46,0.03,2.88,0.67,4.3s1.76,2.54,3.39,3.38c2.23,1.32,4.77,2.4,7.62,3.28c2.84,0.88,5.85,1.5,9,2
	c3.11,0.44,6.23,0.68,9.28,0.68C48.93,78.87,53.24,78.29,57.06,77.21z"/>
<path class="st1" d="M94.91,76.4c1.43-1.52,2.14-3.65,2.14-6.39V9.07c0-2.71-0.75-4.84-2.17-6.35c-1.46-1.52-3.52-2.3-6.16-2.3
	c-2.77,0-4.88,0.78-6.3,2.3c-1.46,1.51-2.17,3.65-2.17,6.35v60.93c0,2.74,0.71,4.87,2.17,6.39c1.42,1.49,3.52,2.26,6.3,2.26
	C91.42,78.66,93.49,77.88,94.91,76.4z"/>
<path class="st1" d="M122.53,14.49h15.06c4.47,0,7.83,0.91,10.13,2.7c2.26,1.83,3.42,4.5,3.42,8.02c0,3.62-1.16,6.32-3.42,8.11
	c-2.3,1.83-5.66,2.71-10.13,2.71h-15.06V14.49z M120.4,76.4c1.42-1.52,2.13-3.65,2.13-6.39V48.13h8.23c2.23,0,4.13,0.37,5.69,1.08
	c1.55,0.75,2.88,2.1,3.96,4.13l10.4,19.14c1.16,2.09,2.47,3.65,3.97,4.66c1.49,1.02,3.42,1.52,5.78,1.52c2.37,0,4.2-0.54,5.42-1.62
	c1.22-1.09,1.9-2.47,1.97-4.23c0.07-1.72-0.41-3.48-1.43-5.3l-6.7-12.45c-1.69-3.01-3.65-5.24-5.92-6.72
	c-2.27-1.5-4.91-2.23-7.96-2.23h-4.43l-0.85,1.83c5.69,0,10.5-0.92,14.43-2.81c3.93-1.86,6.97-4.53,9.07-8.01
	c2.1-3.45,3.15-7.57,3.15-12.35c0-7.34-2.34-13.05-6.94-17.17c-4.64-4.13-11.21-6.19-19.71-6.19H114.3c-2.77,0-4.88,0.75-6.36,2.17
	c-1.5,1.46-2.21,3.59-2.21,6.39v60.05c0,2.74,0.71,4.87,2.17,6.39c1.42,1.49,3.52,2.26,6.3,2.26
	C116.91,78.66,118.98,77.88,120.4,76.4z"/>
<path class="st1" d="M221.1,77.68c2.17,0,3.79-0.55,4.9-1.66c1.12-1.12,1.69-2.77,1.69-4.94c0-2.09-0.58-3.68-1.69-4.8
	s-2.74-1.69-4.9-1.69h-30.54V45.56h28.07c2.23,0,3.89-0.54,5.01-1.69c1.12-1.12,1.69-2.77,1.69-4.93c0-2.17-0.58-3.79-1.69-4.9
	c-1.12-1.12-2.77-1.69-5.01-1.69h-28.07V14.49h30.54c2.17,0,3.79-0.55,4.9-1.66c1.12-1.12,1.69-2.77,1.69-4.94
	c0-2.09-0.58-3.68-1.69-4.8s-2.74-1.69-4.9-1.69h-37.82c-2.8,0-4.97,0.79-6.49,2.27c-1.52,1.51-2.27,3.68-2.27,6.49v58.78
	c0,2.84,0.75,5,2.27,6.49c1.52,1.52,3.69,2.27,6.49,2.27H221.1z"/>
<path class="st1" d="M279.1,77.37c3.9-1.01,7.19-2.4,9.86-4.22c1.59-1.01,2.68-2.23,3.25-3.68c0.58-1.42,0.75-2.88,0.48-4.33
	c-0.27-1.42-0.88-2.68-1.84-3.72c-0.98-1.05-2.2-1.69-3.68-1.96c-1.5-0.24-3.15,0.09-5.02,1.01c-2.26,1.25-4.6,2.16-7.01,2.74
	c-2.43,0.58-4.77,0.84-7.07,0.84c-4.88,0-8.94-0.95-12.22-2.87c-3.29-1.89-5.76-4.71-7.42-8.39c-1.66-3.65-2.47-8.11-2.47-13.32
	c0-5.25,0.81-9.68,2.47-13.29c1.67-3.58,4.14-6.35,7.42-8.28c3.29-1.89,7.35-2.87,12.22-2.87c2.43,0,4.84,0.3,7.24,0.88
	c2.37,0.57,4.67,1.51,6.84,2.8c1.8,0.95,3.43,1.29,4.88,0.98c1.42-0.27,2.64-0.98,3.63-2.06c0.95-1.09,1.55-2.37,1.83-3.89
	c0.24-1.49,0.04-3.01-0.61-4.54c-0.64-1.51-1.87-2.8-3.66-3.82c-2.77-1.63-5.99-2.91-9.71-3.82c-3.72-0.88-7.38-1.35-10.97-1.35
	c-6.15,0-11.65,0.95-16.52,2.81c-4.88,1.89-9.04,4.53-12.42,7.94c-3.39,3.45-5.99,7.55-7.75,12.35c-1.76,4.8-2.64,10.21-2.64,16.16
	c0,8.05,1.55,14.98,4.71,20.86c3.11,5.89,7.62,10.41,13.47,13.66c5.86,3.25,12.9,4.88,21.16,4.88
	C271.32,78.87,275.18,78.36,279.1,77.37z"/>
<path class="st1" d="M342.59,77.68c2.17,0,3.8-0.55,4.91-1.66c1.12-1.12,1.69-2.77,1.69-4.94c0-2.09-0.58-3.68-1.69-4.8
	s-2.75-1.69-4.91-1.69h-30.53V45.56h28.06c2.23,0,3.89-0.54,5.01-1.69c1.13-1.12,1.69-2.77,1.69-4.93c0-2.17-0.57-3.79-1.69-4.9
	c-1.12-1.12-2.77-1.69-5.01-1.69h-28.06V14.49h30.53c2.17,0,3.8-0.55,4.91-1.66c1.12-1.12,1.69-2.77,1.69-4.94
	c0-2.09-0.58-3.68-1.69-4.8s-2.75-1.69-4.91-1.69h-37.81c-2.81,0-4.98,0.79-6.5,2.27c-1.52,1.51-2.26,3.68-2.26,6.49v58.78
	c0,2.84,0.74,5,2.26,6.49c1.52,1.52,3.69,2.27,6.5,2.27H342.59z"/>
<path class="st1" d="M401.55,77.37c3.89-1.01,7.18-2.4,9.86-4.22c1.59-1.01,2.67-2.23,3.25-3.68c0.58-1.42,0.75-2.88,0.47-4.33
	c-0.27-1.42-0.88-2.68-1.83-3.72c-0.98-1.05-2.21-1.69-3.69-1.96c-1.49-0.24-3.15,0.09-5.01,1.01c-2.27,1.25-4.61,2.16-7.02,2.74
	c-2.43,0.58-4.77,0.84-7.07,0.84c-4.88,0-8.94-0.95-12.22-2.87c-3.29-1.89-5.76-4.71-7.41-8.39c-1.66-3.65-2.47-8.11-2.47-13.32
	c0-5.25,0.81-9.68,2.47-13.29c1.66-3.58,4.13-6.35,7.41-8.28c3.29-1.89,7.35-2.87,12.22-2.87c2.44,0,4.84,0.3,7.24,0.88
	c2.38,0.57,4.68,1.51,6.85,2.8c1.79,0.95,3.42,1.29,4.88,0.98c1.42-0.27,2.64-0.98,3.62-2.06c0.95-1.09,1.56-2.37,1.83-3.89
	c0.24-1.49,0.04-3.01-0.61-4.54c-0.64-1.51-1.87-2.8-3.65-3.82c-2.77-1.63-5.99-2.91-9.71-3.82c-3.73-0.88-7.38-1.35-10.97-1.35
	c-6.16,0-11.65,0.95-16.52,2.81c-4.88,1.89-9.04,4.53-12.43,7.94c-3.38,3.45-5.99,7.55-7.75,12.35s-2.64,10.21-2.64,16.16
	c0,8.05,1.56,14.98,4.71,20.86c3.11,5.89,7.62,10.41,13.48,13.66c5.85,3.25,12.89,4.88,21.16,4.88
	C393.75,78.87,397.62,78.36,401.55,77.37z"/>
<rect x="138.44" y="44.27" class="st1" width="13.25" height="4.73"/>
<g>
	<path class="st1" d="M432.87,90.52c0.42-0.31,0.77-0.77,1.06-1.43l4.62-10.48c0.24-0.51,0.31-0.98,0.24-1.43
		c-0.07-0.42-0.26-0.77-0.56-1.05c-0.31-0.28-0.73-0.43-1.25-0.43c-0.61,0-1.08,0.14-1.4,0.38c-0.35,0.26-0.66,0.72-0.92,1.4
		l-3.71,9.02h0.96l-3.54-9c-0.28-0.7-0.58-1.17-0.91-1.42c-0.33-0.24-0.77-0.38-1.32-0.38c-0.66,0-1.17,0.14-1.55,0.43
		c-0.37,0.28-0.58,0.63-0.63,1.08c-0.07,0.45,0,0.94,0.23,1.45l4.54,10.44c0.26,0.63,0.61,1.1,1.06,1.4
		c0.42,0.3,0.94,0.47,1.52,0.47C431.9,90.96,432.44,90.8,432.87,90.52z"/>
	<path class="st1" d="M443.12,83.25v1.13L449.5,75h-0.87v8.25H443.12z M452.62,90.36c0.37-0.4,0.58-0.98,0.58-1.74v-1.71h1.11
		c0.68,0,1.19-0.14,1.52-0.47c0.33-0.33,0.49-0.77,0.49-1.36c0-0.61-0.19-1.06-0.52-1.36c-0.35-0.31-0.84-0.47-1.5-0.47h-1.11V71.6
		c0-0.77-0.21-1.36-0.58-1.75c-0.4-0.38-0.91-0.59-1.55-0.59c-0.56,0-1.03,0.14-1.46,0.4c-0.42,0.26-0.79,0.63-1.12,1.12l-7.8,11.32
		c-0.47,0.64-0.77,1.15-0.96,1.58c-0.19,0.42-0.26,0.82-0.26,1.21c0,0.68,0.22,1.2,0.66,1.53c0.42,0.33,1.03,0.49,1.78,0.49h6.71
		v1.71c0,0.75,0.19,1.34,0.61,1.74c0.42,0.39,0.98,0.6,1.71,0.6C451.66,90.96,452.22,90.75,452.62,90.36z"/>
	<path class="st1" d="M461.25,90.12c0.45-0.47,0.68-1.1,0.68-1.88c0-0.73-0.24-1.33-0.68-1.8c-0.45-0.47-1.06-0.7-1.85-0.7
		c-0.82,0-1.46,0.24-1.92,0.7c-0.47,0.47-0.71,1.08-0.71,1.8c0,0.77,0.24,1.4,0.71,1.88c0.47,0.47,1.1,0.7,1.92,0.7
		C460.2,90.83,460.81,90.59,461.25,90.12z"/>
	<path class="st1" d="M468.2,85.53c-0.56-1.15-0.85-2.98-0.85-5.49c0-2.48,0.28-4.29,0.85-5.39s1.41-1.67,2.59-1.67
		c1.15,0,2.01,0.56,2.58,1.67c0.56,1.1,0.85,2.91,0.85,5.39c0,2.51-0.28,4.34-0.85,5.49c-0.56,1.15-1.43,1.71-2.58,1.71
		C469.61,87.24,468.76,86.68,468.2,85.53z M475.1,89.72c1.17-0.84,2.06-2.09,2.67-3.73c0.61-1.64,0.92-3.61,0.92-5.95
		c0-3.52-0.68-6.21-2.02-8.06c-1.36-1.83-3.31-2.77-5.89-2.77c-1.72,0-3.15,0.42-4.32,1.24c-1.17,0.85-2.07,2.07-2.68,3.66
		c-0.61,1.61-0.92,3.58-0.92,5.93c0,3.52,0.66,6.22,2.02,8.11c1.36,1.92,3.31,2.86,5.89,2.86C472.5,91.02,473.93,90.59,475.1,89.72z
		"/>
</g>
<g class="st2">
	<path d="M9.41,132.07c-0.85,0-1.72-0.07-2.6-0.2c-0.88-0.13-1.72-0.32-2.52-0.56c-0.8-0.24-1.51-0.55-2.14-0.91
		c-0.45-0.24-0.76-0.56-0.94-0.96s-0.25-0.79-0.2-1.2c0.05-0.4,0.2-0.76,0.46-1.08c0.25-0.31,0.58-0.52,0.97-0.61
		c0.39-0.09,0.84-0.02,1.32,0.23c0.83,0.47,1.74,0.81,2.72,1.03c0.98,0.22,1.96,0.33,2.93,0.33c1.48,0,2.53-0.23,3.16-0.68
		c0.63-0.46,0.94-1.03,0.94-1.72c0-0.59-0.22-1.05-0.67-1.4c-0.45-0.34-1.23-0.64-2.34-0.88l-3.43-0.73
		c-1.94-0.4-3.39-1.1-4.33-2.08c-0.94-0.98-1.41-2.27-1.41-3.87c0-1.01,0.21-1.93,0.64-2.76c0.43-0.83,1.02-1.55,1.79-2.16
		c0.77-0.61,1.69-1.07,2.75-1.4c1.06-0.32,2.23-0.49,3.51-0.49c1.13,0,2.25,0.14,3.34,0.41c1.09,0.27,2.05,0.67,2.89,1.2
		c0.4,0.24,0.68,0.55,0.84,0.93c0.15,0.37,0.2,0.75,0.15,1.12c-0.05,0.38-0.2,0.7-0.46,0.99c-0.25,0.28-0.57,0.47-0.96,0.55
		c-0.38,0.08-0.85-0.01-1.4-0.27c-0.67-0.34-1.38-0.6-2.13-0.76c-0.75-0.16-1.52-0.24-2.31-0.24c-0.85,0-1.57,0.11-2.17,0.33
		c-0.6,0.22-1.05,0.54-1.37,0.94c-0.31,0.41-0.47,0.87-0.47,1.4c0,0.59,0.21,1.06,0.64,1.43c0.43,0.36,1.16,0.66,2.22,0.88
		l3.43,0.73c1.98,0.43,3.46,1.11,4.43,2.05c0.97,0.94,1.46,2.18,1.46,3.72c0,1.01-0.2,1.93-0.61,2.75
		c-0.41,0.82-0.99,1.52-1.76,2.11c-0.77,0.59-1.69,1.04-2.76,1.35C11.96,131.91,10.75,132.07,9.41,132.07z"/>
	<path d="M22.08,132.01c-0.77,0-1.36-0.21-1.76-0.64c-0.41-0.42-0.61-1.02-0.61-1.79v-17.1c0-0.77,0.2-1.37,0.61-1.79
		c0.4-0.43,0.99-0.64,1.76-0.64c0.75,0,1.33,0.21,1.73,0.64c0.4,0.43,0.61,1.02,0.61,1.79v17.1c0,0.77-0.2,1.37-0.59,1.79
		C23.43,131.79,22.85,132.01,22.08,132.01z"/>
	<path d="M34.86,132.07c-0.85,0-1.72-0.07-2.6-0.2c-0.88-0.13-1.72-0.32-2.52-0.56c-0.8-0.24-1.51-0.55-2.14-0.91
		c-0.45-0.24-0.76-0.56-0.94-0.96s-0.25-0.79-0.2-1.2c0.05-0.4,0.2-0.76,0.46-1.08c0.25-0.31,0.58-0.52,0.97-0.61
		c0.39-0.09,0.84-0.02,1.32,0.23c0.83,0.47,1.74,0.81,2.72,1.03c0.98,0.22,1.96,0.33,2.93,0.33c1.48,0,2.53-0.23,3.16-0.68
		c0.63-0.46,0.94-1.03,0.94-1.72c0-0.59-0.22-1.05-0.67-1.4c-0.45-0.34-1.23-0.64-2.34-0.88l-3.43-0.73
		c-1.94-0.4-3.39-1.1-4.33-2.08c-0.94-0.98-1.41-2.27-1.41-3.87c0-1.01,0.21-1.93,0.64-2.76c0.43-0.83,1.02-1.55,1.79-2.16
		c0.77-0.61,1.69-1.07,2.75-1.4c1.06-0.32,2.23-0.49,3.51-0.49c1.13,0,2.25,0.14,3.34,0.41c1.09,0.27,2.05,0.67,2.89,1.2
		c0.4,0.24,0.68,0.55,0.84,0.93c0.15,0.37,0.2,0.75,0.15,1.12c-0.05,0.38-0.2,0.7-0.46,0.99c-0.25,0.28-0.57,0.47-0.96,0.55
		c-0.38,0.08-0.85-0.01-1.4-0.27c-0.67-0.34-1.38-0.6-2.13-0.76c-0.75-0.16-1.52-0.24-2.31-0.24c-0.85,0-1.57,0.11-2.17,0.33
		c-0.6,0.22-1.05,0.54-1.37,0.94c-0.31,0.41-0.47,0.87-0.47,1.4c0,0.59,0.21,1.06,0.64,1.43c0.43,0.36,1.16,0.66,2.22,0.88
		l3.43,0.73c1.98,0.43,3.46,1.11,4.43,2.05c0.97,0.94,1.46,2.18,1.46,3.72c0,1.01-0.2,1.93-0.61,2.75
		c-0.41,0.82-0.99,1.52-1.76,2.11c-0.77,0.59-1.69,1.04-2.76,1.35C37.41,131.91,36.2,132.07,34.86,132.07z"/>
	<path d="M52.18,132.01c-0.77,0-1.36-0.21-1.76-0.64c-0.41-0.42-0.61-1.02-0.61-1.79v-15.37h-5.38c-0.63,0-1.11-0.17-1.46-0.52
		c-0.34-0.34-0.52-0.82-0.52-1.43c0-0.63,0.17-1.11,0.52-1.44c0.34-0.33,0.83-0.5,1.46-0.5h15.46c0.63,0,1.11,0.17,1.46,0.5
		c0.34,0.33,0.52,0.82,0.52,1.44c0,0.61-0.17,1.08-0.52,1.43c-0.34,0.34-0.83,0.52-1.46,0.52h-5.38v15.37c0,0.77-0.2,1.37-0.59,1.79
		C53.53,131.79,52.95,132.01,52.18,132.01z"/>
	<path d="M64.84,131.73c-0.79,0-1.4-0.21-1.82-0.64c-0.43-0.43-0.64-1.03-0.64-1.82v-16.49c0-0.79,0.21-1.4,0.64-1.82
		c0.43-0.43,1.03-0.64,1.82-0.64h10.6c0.61,0,1.07,0.16,1.38,0.47c0.31,0.31,0.47,0.76,0.47,1.35c0,0.61-0.16,1.07-0.47,1.38
		c-0.31,0.31-0.77,0.47-1.38,0.47h-8.56v5.01h7.87c0.63,0,1.1,0.16,1.41,0.47c0.31,0.31,0.47,0.77,0.47,1.38
		c0,0.61-0.16,1.07-0.47,1.38c-0.31,0.31-0.78,0.47-1.41,0.47h-7.87v5.35h8.56c0.61,0,1.07,0.16,1.38,0.47
		c0.31,0.31,0.47,0.76,0.47,1.35c0,0.61-0.16,1.07-0.47,1.38c-0.31,0.31-0.77,0.47-1.38,0.47H64.84z"/>
	<path d="M81.42,132.01c-0.69,0-1.21-0.19-1.58-0.58c-0.36-0.38-0.55-0.92-0.55-1.61v-17.58c0-0.69,0.2-1.22,0.59-1.61
		c0.39-0.38,0.94-0.58,1.62-0.58c0.61,0,1.09,0.12,1.44,0.35c0.35,0.23,0.68,0.63,0.99,1.2l7.02,12.82h-1.03l7.02-12.82
		c0.3-0.57,0.63-0.97,0.99-1.2c0.35-0.23,0.82-0.35,1.41-0.35c0.69,0,1.22,0.19,1.59,0.58c0.37,0.38,0.56,0.92,0.56,1.61v17.58
		c0,0.69-0.18,1.23-0.55,1.61c-0.36,0.38-0.89,0.58-1.58,0.58c-0.69,0-1.22-0.19-1.59-0.58c-0.37-0.38-0.56-0.92-0.56-1.61v-12.3
		h0.67l-5.65,10.11c-0.24,0.38-0.5,0.67-0.77,0.87c-0.27,0.19-0.63,0.29-1.08,0.29c-0.45,0-0.81-0.1-1.09-0.3
		c-0.28-0.2-0.54-0.49-0.76-0.85l-5.71-10.14h0.73v12.33c0,0.69-0.18,1.23-0.53,1.61C82.66,131.81,82.13,132.01,81.42,132.01z"/>
	<path d="M104.93,132.01c-0.57,0-1.03-0.13-1.38-0.4c-0.35-0.26-0.58-0.62-0.67-1.06c-0.09-0.44-0.01-0.94,0.26-1.49l7.78-17.04
		c0.32-0.69,0.71-1.19,1.15-1.5c0.45-0.31,0.96-0.47,1.55-0.47c0.59,0,1.1,0.16,1.55,0.47c0.45,0.31,0.82,0.82,1.12,1.5l7.84,17.04
		c0.26,0.55,0.36,1.05,0.29,1.5c-0.07,0.46-0.28,0.81-0.62,1.06c-0.34,0.25-0.79,0.38-1.34,0.38c-0.69,0-1.22-0.16-1.59-0.49
		c-0.37-0.32-0.7-0.83-0.99-1.52l-1.82-4.22l1.88,1.31h-12.66l1.88-1.31l-1.79,4.22c-0.3,0.71-0.62,1.22-0.96,1.53
		C106.07,131.85,105.58,132.01,104.93,132.01z M113.55,115.33l-3.89,9.26l-0.82-1.18h9.51l-0.82,1.18l-3.92-9.26H113.55z"/>
	<path d="M135.09,131.73c-0.79,0-1.4-0.21-1.82-0.64c-0.43-0.43-0.64-1.03-0.64-1.82v-16.49c0-0.79,0.21-1.4,0.64-1.82
		c0.43-0.43,1.03-0.64,1.82-0.64h5.92c3.66,0,6.49,0.93,8.49,2.78c1.99,1.85,2.99,4.49,2.99,7.91c0,1.72-0.26,3.25-0.77,4.57
		c-0.52,1.33-1.26,2.44-2.23,3.36c-0.97,0.91-2.17,1.6-3.58,2.08c-1.42,0.48-3.05,0.71-4.89,0.71H135.09z M137.33,127.88h3.4
		c1.15,0,2.16-0.14,3.01-0.43c0.85-0.28,1.56-0.71,2.13-1.28c0.57-0.57,0.99-1.28,1.28-2.14c0.28-0.86,0.43-1.87,0.43-3.02
		c0-2.31-0.57-4.02-1.72-5.15c-1.14-1.12-2.85-1.69-5.12-1.69h-3.4V127.88z"/>
	<path d="M157.08,131.73c-0.79,0-1.4-0.21-1.82-0.64s-0.64-1.03-0.64-1.82v-16.49c0-0.79,0.21-1.4,0.64-1.82
		c0.43-0.43,1.03-0.64,1.82-0.64h10.6c0.61,0,1.07,0.16,1.38,0.47c0.31,0.31,0.47,0.76,0.47,1.35c0,0.61-0.16,1.07-0.47,1.38
		c-0.31,0.31-0.77,0.47-1.38,0.47h-8.56v5.01h7.87c0.63,0,1.1,0.16,1.41,0.47c0.31,0.31,0.47,0.77,0.47,1.38
		c0,0.61-0.16,1.07-0.47,1.38c-0.31,0.31-0.79,0.47-1.41,0.47h-7.87v5.35h8.56c0.61,0,1.07,0.16,1.38,0.47
		c0.31,0.31,0.47,0.76,0.47,1.35c0,0.61-0.16,1.07-0.47,1.38c-0.31,0.31-0.77,0.47-1.38,0.47H157.08z"/>
	<path d="M180.79,132.01c-0.77,0-1.36-0.21-1.76-0.64c-0.41-0.42-0.61-1.02-0.61-1.79v-16.86c0-0.79,0.21-1.39,0.62-1.79
		c0.41-0.4,1.01-0.61,1.78-0.61h7.38c2.39,0,4.23,0.58,5.53,1.73c1.3,1.15,1.94,2.76,1.94,4.83c0,1.34-0.29,2.49-0.88,3.46
		c-0.59,0.97-1.43,1.72-2.54,2.25c-1.1,0.53-2.46,0.79-4.05,0.79l0.24-0.52h1.25c0.85,0,1.59,0.21,2.23,0.62
		c0.64,0.42,1.19,1.05,1.66,1.9l1.88,3.49c0.28,0.51,0.41,1,0.39,1.49c-0.02,0.49-0.2,0.88-0.55,1.18c-0.34,0.3-0.85,0.46-1.52,0.46
		c-0.67,0-1.21-0.14-1.62-0.43c-0.42-0.28-0.78-0.72-1.11-1.31l-2.92-5.38c-0.3-0.57-0.67-0.95-1.11-1.15
		c-0.44-0.2-0.97-0.3-1.59-0.3h-2.31v6.14c0,0.77-0.2,1.37-0.59,1.79C182.15,131.79,181.56,132.01,180.79,132.01z M183.13,120.04
		h4.22c1.26,0,2.2-0.25,2.84-0.76c0.64-0.51,0.96-1.27,0.96-2.28c0-0.99-0.32-1.74-0.96-2.25c-0.64-0.51-1.58-0.76-2.84-0.76h-4.22
		V120.04z"/>
	<path d="M200.51,131.73c-0.79,0-1.4-0.21-1.82-0.64s-0.64-1.03-0.64-1.82v-16.49c0-0.79,0.21-1.4,0.64-1.82
		c0.43-0.43,1.03-0.64,1.82-0.64h10.6c0.61,0,1.07,0.16,1.38,0.47c0.31,0.31,0.47,0.76,0.47,1.35c0,0.61-0.16,1.07-0.47,1.38
		c-0.31,0.31-0.77,0.47-1.38,0.47h-8.56v5.01h7.87c0.63,0,1.1,0.16,1.41,0.47c0.31,0.31,0.47,0.77,0.47,1.38
		c0,0.61-0.16,1.07-0.47,1.38c-0.31,0.31-0.79,0.47-1.41,0.47h-7.87v5.35h8.56c0.61,0,1.07,0.16,1.38,0.47
		c0.31,0.31,0.47,0.76,0.47,1.35c0,0.61-0.16,1.07-0.47,1.38c-0.31,0.31-0.77,0.47-1.38,0.47H200.51z"/>
	<path d="M225.5,132.07c-2.41,0-4.45-0.46-6.12-1.37c-1.67-0.91-2.94-2.19-3.81-3.83c-0.87-1.64-1.31-3.56-1.31-5.77
		c0-1.7,0.26-3.23,0.77-4.6c0.52-1.37,1.27-2.53,2.25-3.49c0.98-0.96,2.18-1.71,3.58-2.23c1.41-0.53,3-0.79,4.78-0.79
		c1.09,0,2.19,0.12,3.28,0.36s2.15,0.65,3.16,1.21c0.43,0.24,0.71,0.55,0.87,0.93c0.15,0.38,0.19,0.77,0.12,1.18
		c-0.07,0.42-0.23,0.78-0.49,1.09c-0.25,0.31-0.58,0.52-0.97,0.61c-0.4,0.09-0.85,0.02-1.35-0.23c-0.67-0.36-1.38-0.63-2.13-0.8
		c-0.75-0.17-1.57-0.26-2.46-0.26c-1.44,0-2.64,0.27-3.61,0.8c-0.97,0.54-1.7,1.33-2.17,2.37c-0.48,1.04-0.71,2.32-0.71,3.84
		c0,2.29,0.55,4.02,1.66,5.19c1.1,1.17,2.74,1.76,4.91,1.76c0.73,0,1.48-0.07,2.25-0.21c0.77-0.14,1.53-0.34,2.28-0.61l-0.88,1.91
		v-5.83h-2.73c-0.61,0-1.07-0.15-1.4-0.46c-0.32-0.3-0.49-0.72-0.49-1.24c0-0.55,0.16-0.97,0.49-1.26c0.32-0.29,0.79-0.44,1.4-0.44
		h4.77c0.61,0,1.07,0.16,1.38,0.49c0.31,0.32,0.47,0.79,0.47,1.4v7.05c0,0.53-0.1,0.97-0.3,1.34c-0.2,0.36-0.55,0.63-1.03,0.79
		c-0.91,0.32-1.93,0.59-3.07,0.79C227.74,131.96,226.61,132.07,225.5,132.07z"/>
	<path d="M238.29,132.01c-0.77,0-1.36-0.21-1.76-0.64c-0.41-0.42-0.61-1.02-0.61-1.79v-17.1c0-0.77,0.2-1.37,0.61-1.79
		c0.4-0.43,0.99-0.64,1.76-0.64c0.75,0,1.33,0.21,1.73,0.64c0.4,0.43,0.61,1.02,0.61,1.79v17.1c0,0.77-0.2,1.37-0.59,1.79
		C239.64,131.79,239.06,132.01,238.29,132.01z"/>
	<path d="M251.07,132.07c-0.85,0-1.72-0.07-2.6-0.2c-0.88-0.13-1.72-0.32-2.52-0.56c-0.8-0.24-1.51-0.55-2.14-0.91
		c-0.45-0.24-0.76-0.56-0.94-0.96c-0.18-0.39-0.25-0.79-0.2-1.2c0.05-0.4,0.2-0.76,0.46-1.08c0.25-0.31,0.58-0.52,0.97-0.61
		c0.4-0.09,0.84-0.02,1.32,0.23c0.83,0.47,1.74,0.81,2.72,1.03c0.98,0.22,1.96,0.33,2.93,0.33c1.48,0,2.53-0.23,3.16-0.68
		c0.63-0.46,0.94-1.03,0.94-1.72c0-0.59-0.22-1.05-0.67-1.4c-0.45-0.34-1.23-0.64-2.34-0.88l-3.43-0.73
		c-1.94-0.4-3.39-1.1-4.33-2.08c-0.94-0.98-1.41-2.27-1.41-3.87c0-1.01,0.21-1.93,0.64-2.76c0.43-0.83,1.02-1.55,1.79-2.16
		c0.77-0.61,1.69-1.07,2.75-1.4c1.06-0.32,2.23-0.49,3.51-0.49c1.13,0,2.25,0.14,3.34,0.41c1.09,0.27,2.05,0.67,2.89,1.2
		c0.4,0.24,0.68,0.55,0.84,0.93c0.15,0.37,0.2,0.75,0.15,1.12c-0.05,0.38-0.2,0.7-0.46,0.99c-0.25,0.28-0.57,0.47-0.96,0.55
		c-0.38,0.08-0.85-0.01-1.4-0.27c-0.67-0.34-1.38-0.6-2.13-0.76c-0.75-0.16-1.52-0.24-2.31-0.24c-0.85,0-1.57,0.11-2.17,0.33
		c-0.6,0.22-1.05,0.54-1.37,0.94c-0.31,0.41-0.47,0.87-0.47,1.4c0,0.59,0.21,1.06,0.64,1.43c0.43,0.36,1.16,0.66,2.22,0.88
		l3.43,0.73c1.98,0.43,3.46,1.11,4.43,2.05c0.97,0.94,1.46,2.18,1.46,3.72c0,1.01-0.2,1.93-0.61,2.75
		c-0.41,0.82-0.99,1.52-1.76,2.11c-0.77,0.59-1.69,1.04-2.76,1.35C253.61,131.91,252.41,132.07,251.07,132.07z"/>
	<path d="M268.38,132.01c-0.77,0-1.36-0.21-1.76-0.64c-0.41-0.42-0.61-1.02-0.61-1.79v-15.37h-5.38c-0.63,0-1.11-0.17-1.46-0.52
		c-0.34-0.34-0.52-0.82-0.52-1.43c0-0.63,0.17-1.11,0.52-1.44c0.34-0.33,0.83-0.5,1.46-0.5h15.46c0.63,0,1.11,0.17,1.46,0.5
		s0.52,0.82,0.52,1.44c0,0.61-0.17,1.08-0.52,1.43s-0.83,0.52-1.46,0.52h-5.38v15.37c0,0.77-0.2,1.37-0.59,1.79
		C269.74,131.79,269.15,132.01,268.38,132.01z"/>
	<path d="M280.96,132.01c-0.77,0-1.36-0.21-1.76-0.64c-0.41-0.42-0.61-1.02-0.61-1.79v-16.86c0-0.79,0.21-1.39,0.62-1.79
		c0.41-0.4,1.01-0.61,1.78-0.61h7.38c2.39,0,4.23,0.58,5.53,1.73c1.3,1.15,1.94,2.76,1.94,4.83c0,1.34-0.29,2.49-0.88,3.46
		c-0.59,0.97-1.43,1.72-2.54,2.25c-1.1,0.53-2.46,0.79-4.05,0.79l0.24-0.52h1.25c0.85,0,1.59,0.21,2.23,0.62
		c0.64,0.42,1.19,1.05,1.65,1.9l1.88,3.49c0.28,0.51,0.41,1,0.39,1.49c-0.02,0.49-0.2,0.88-0.55,1.18c-0.34,0.3-0.85,0.46-1.52,0.46
		c-0.67,0-1.21-0.14-1.62-0.43c-0.42-0.28-0.79-0.72-1.11-1.31l-2.92-5.38c-0.3-0.57-0.67-0.95-1.11-1.15
		c-0.44-0.2-0.97-0.3-1.59-0.3h-2.31v6.14c0,0.77-0.2,1.37-0.59,1.79C282.31,131.79,281.73,132.01,280.96,132.01z M283.3,120.04
		h4.22c1.26,0,2.2-0.25,2.84-0.76c0.64-0.51,0.96-1.27,0.96-2.28c0-0.99-0.32-1.74-0.96-2.25c-0.64-0.51-1.58-0.76-2.84-0.76h-4.22
		V120.04z"/>
	<path d="M307.99,132.07c-2.11,0-3.95-0.46-5.54-1.38c-1.59-0.92-2.82-2.21-3.71-3.87c-0.88-1.66-1.32-3.59-1.32-5.8
		c0-1.68,0.25-3.19,0.74-4.54c0.5-1.35,1.21-2.5,2.14-3.46c0.93-0.96,2.05-1.71,3.36-2.23c1.31-0.53,2.75-0.79,4.33-0.79
		c2.15,0,4.01,0.46,5.59,1.37c1.58,0.91,2.81,2.19,3.69,3.84c0.88,1.65,1.32,3.58,1.32,5.79c0,1.68-0.25,3.2-0.76,4.56
		c-0.51,1.36-1.23,2.52-2.16,3.49c-0.93,0.97-2.05,1.72-3.34,2.25C311.03,131.8,309.59,132.07,307.99,132.07z M307.99,128.06
		c1.19,0,2.21-0.28,3.05-0.84c0.84-0.56,1.49-1.37,1.94-2.43c0.46-1.06,0.68-2.32,0.68-3.78c0-2.23-0.5-3.95-1.49-5.18
		c-0.99-1.22-2.39-1.84-4.19-1.84c-1.17,0-2.19,0.27-3.04,0.82c-0.85,0.55-1.5,1.35-1.94,2.4c-0.45,1.05-0.67,2.32-0.67,3.8
		c0,2.21,0.5,3.93,1.49,5.18C304.82,127.43,306.21,128.06,307.99,128.06z"/>
	<path d="M335.11,132.01c-0.77,0-1.36-0.21-1.76-0.64c-0.41-0.42-0.61-1.03-0.61-1.82v-8.81l0.97,2.7l-7.17-10.17
		c-0.28-0.43-0.41-0.89-0.36-1.38c0.04-0.5,0.24-0.93,0.61-1.29c0.36-0.36,0.88-0.55,1.55-0.55c0.49,0,0.93,0.12,1.32,0.36
		c0.39,0.24,0.77,0.63,1.14,1.15l4.86,7.02h-0.97l4.86-7.02c0.38-0.55,0.76-0.94,1.14-1.17c0.37-0.23,0.81-0.35,1.32-0.35
		c0.65,0,1.15,0.17,1.52,0.5c0.36,0.33,0.56,0.75,0.58,1.25c0.02,0.5-0.15,1.01-0.52,1.53l-7.08,10.11l0.94-2.7v8.81
		C337.45,131.19,336.67,132.01,335.11,132.01z"/>
	<path d="M362.65,132.07c-2.31,0-4.28-0.46-5.92-1.37c-1.64-0.91-2.9-2.19-3.78-3.84c-0.88-1.65-1.32-3.6-1.32-5.85
		c0-1.68,0.25-3.19,0.74-4.54c0.5-1.35,1.22-2.5,2.17-3.46c0.95-0.96,2.11-1.71,3.48-2.23c1.37-0.53,2.91-0.79,4.63-0.79
		c1.01,0,2.04,0.13,3.08,0.38c1.04,0.25,1.95,0.61,2.72,1.08c0.51,0.28,0.85,0.64,1.03,1.06c0.18,0.43,0.24,0.85,0.17,1.28
		c-0.07,0.43-0.24,0.79-0.52,1.09c-0.27,0.3-0.61,0.5-1.02,0.58c-0.41,0.08-0.86-0.01-1.37-0.27c-0.61-0.36-1.25-0.63-1.91-0.79
		c-0.67-0.16-1.35-0.24-2.03-0.24c-1.36,0-2.5,0.27-3.42,0.8c-0.92,0.54-1.61,1.31-2.08,2.32c-0.47,1.01-0.7,2.26-0.7,3.74
		c0,1.46,0.23,2.7,0.7,3.74c0.47,1.03,1.16,1.82,2.08,2.35c0.92,0.54,2.06,0.8,3.42,0.8c0.65,0,1.31-0.08,1.99-0.24
		c0.68-0.16,1.33-0.41,1.96-0.76c0.53-0.26,1-0.36,1.41-0.29c0.41,0.07,0.76,0.25,1.03,0.55c0.27,0.29,0.45,0.64,0.52,1.05
		c0.07,0.41,0.03,0.81-0.14,1.21c-0.16,0.41-0.47,0.75-0.91,1.03c-0.75,0.51-1.67,0.9-2.76,1.18
		C364.81,131.92,363.73,132.07,362.65,132.07z"/>
	<path d="M380.72,132.07c-2.11,0-3.95-0.46-5.54-1.38c-1.59-0.92-2.82-2.21-3.71-3.87c-0.88-1.66-1.32-3.59-1.32-5.8
		c0-1.68,0.25-3.19,0.74-4.54c0.5-1.35,1.21-2.5,2.14-3.46c0.93-0.96,2.05-1.71,3.36-2.23c1.31-0.53,2.75-0.79,4.33-0.79
		c2.15,0,4.01,0.46,5.59,1.37c1.58,0.91,2.81,2.19,3.69,3.84c0.88,1.65,1.32,3.58,1.32,5.79c0,1.68-0.25,3.2-0.76,4.56
		c-0.51,1.36-1.23,2.52-2.16,3.49c-0.93,0.97-2.05,1.72-3.34,2.25C383.77,131.8,382.32,132.07,380.72,132.07z M380.72,128.06
		c1.19,0,2.21-0.28,3.05-0.84c0.84-0.56,1.49-1.37,1.94-2.43c0.46-1.06,0.68-2.32,0.68-3.78c0-2.23-0.5-3.95-1.49-5.18
		c-0.99-1.22-2.39-1.84-4.19-1.84c-1.17,0-2.19,0.27-3.04,0.82c-0.85,0.55-1.5,1.35-1.94,2.4c-0.45,1.05-0.67,2.32-0.67,3.8
		c0,2.21,0.5,3.93,1.49,5.18C377.56,127.43,378.94,128.06,380.72,128.06z"/>
	<path d="M395.64,132.01c-0.71,0-1.25-0.2-1.62-0.59c-0.38-0.39-0.56-0.96-0.56-1.69v-17.31c0-0.77,0.19-1.36,0.56-1.76
		c0.37-0.4,0.88-0.61,1.5-0.61c0.55,0,0.97,0.11,1.26,0.32c0.29,0.21,0.63,0.56,1.02,1.05l10.66,13.58h-0.82v-12.69
		c0-0.71,0.19-1.26,0.56-1.66c0.37-0.4,0.92-0.59,1.62-0.59c0.71,0,1.25,0.2,1.63,0.59c0.37,0.39,0.56,0.95,0.56,1.66v17.52
		c0,0.67-0.17,1.2-0.52,1.59c-0.34,0.39-0.81,0.59-1.4,0.59c-0.57,0-1.02-0.11-1.35-0.33c-0.33-0.22-0.69-0.58-1.08-1.06
		l-10.63-13.58h0.79v12.69c0,0.73-0.18,1.29-0.55,1.69C396.91,131.81,396.37,132.01,395.64,132.01z"/>
	<path d="M422.27,132.01c-0.77,0-1.36-0.21-1.76-0.64c-0.41-0.42-0.61-1.02-0.61-1.79v-15.37h-5.38c-0.63,0-1.11-0.17-1.46-0.52
		c-0.34-0.34-0.52-0.82-0.52-1.43c0-0.63,0.17-1.11,0.52-1.44c0.34-0.33,0.83-0.5,1.46-0.5h15.46c0.63,0,1.11,0.17,1.46,0.5
		c0.34,0.33,0.52,0.82,0.52,1.44c0,0.61-0.17,1.08-0.52,1.43c-0.34,0.34-0.83,0.52-1.46,0.52h-5.38v15.37c0,0.77-0.2,1.37-0.59,1.79
		C423.62,131.79,423.04,132.01,422.27,132.01z"/>
	<path d="M434.84,132.01c-0.77,0-1.36-0.21-1.76-0.64c-0.41-0.42-0.61-1.02-0.61-1.79v-16.86c0-0.79,0.21-1.39,0.62-1.79
		c0.41-0.4,1.01-0.61,1.78-0.61h7.38c2.39,0,4.23,0.58,5.53,1.73c1.3,1.15,1.94,2.76,1.94,4.83c0,1.34-0.29,2.49-0.88,3.46
		c-0.59,0.97-1.43,1.72-2.54,2.25c-1.1,0.53-2.46,0.79-4.05,0.79l0.24-0.52h1.25c0.85,0,1.59,0.21,2.23,0.62
		c0.64,0.42,1.19,1.05,1.66,1.9l1.88,3.49c0.28,0.51,0.41,1,0.4,1.49c-0.02,0.49-0.2,0.88-0.55,1.18c-0.34,0.3-0.85,0.46-1.52,0.46
		c-0.67,0-1.21-0.14-1.63-0.43c-0.42-0.28-0.78-0.72-1.11-1.31l-2.92-5.38c-0.3-0.57-0.67-0.95-1.11-1.15
		c-0.44-0.2-0.97-0.3-1.59-0.3h-2.31v6.14c0,0.77-0.2,1.37-0.59,1.79C436.2,131.79,435.61,132.01,434.84,132.01z M437.18,120.04
		h4.22c1.25,0,2.2-0.25,2.84-0.76c0.64-0.51,0.96-1.27,0.96-2.28c0-0.99-0.32-1.74-0.96-2.25c-0.64-0.51-1.58-0.76-2.84-0.76h-4.22
		V120.04z"/>
	<path d="M461.88,132.07c-2.11,0-3.95-0.46-5.54-1.38c-1.59-0.92-2.82-2.21-3.71-3.87c-0.88-1.66-1.32-3.59-1.32-5.8
		c0-1.68,0.25-3.19,0.74-4.54c0.5-1.35,1.21-2.5,2.14-3.46c0.93-0.96,2.05-1.71,3.36-2.23c1.31-0.53,2.75-0.79,4.33-0.79
		c2.15,0,4.01,0.46,5.59,1.37c1.58,0.91,2.81,2.19,3.69,3.84c0.88,1.65,1.32,3.58,1.32,5.79c0,1.68-0.25,3.2-0.76,4.56
		c-0.51,1.36-1.23,2.52-2.16,3.49c-0.93,0.97-2.05,1.72-3.34,2.25C464.92,131.8,463.47,132.07,461.88,132.07z M461.88,128.06
		c1.19,0,2.21-0.28,3.05-0.84c0.84-0.56,1.49-1.37,1.94-2.43s0.68-2.32,0.68-3.78c0-2.23-0.5-3.95-1.49-5.18
		c-0.99-1.22-2.39-1.84-4.19-1.84c-1.17,0-2.19,0.27-3.04,0.82c-0.85,0.55-1.5,1.35-1.94,2.4c-0.45,1.05-0.67,2.32-0.67,3.8
		c0,2.21,0.5,3.93,1.49,5.18C458.71,127.43,460.09,128.06,461.88,128.06z"/>
	<path d="M477,131.73c-0.77,0-1.36-0.21-1.78-0.64c-0.42-0.43-0.62-1.01-0.62-1.76v-16.67c0-0.79,0.2-1.39,0.61-1.79
		c0.4-0.4,0.99-0.61,1.76-0.61c0.75,0,1.33,0.2,1.73,0.61c0.4,0.41,0.61,1,0.61,1.79v15.09h8.14c0.65,0,1.15,0.17,1.5,0.52
		c0.35,0.34,0.53,0.83,0.53,1.46c0,0.65-0.18,1.14-0.53,1.49c-0.35,0.34-0.86,0.52-1.5,0.52H477z"/>
	<path d="M27.45,163.89c-0.79,0-1.4-0.21-1.82-0.64c-0.43-0.43-0.64-1.03-0.64-1.82v-16.49c0-0.79,0.21-1.4,0.64-1.82
		c0.43-0.43,1.03-0.64,1.82-0.64h5.92c3.66,0,6.49,0.93,8.49,2.78c1.99,1.85,2.99,4.49,2.99,7.91c0,1.72-0.26,3.25-0.77,4.57
		c-0.52,1.33-1.26,2.44-2.23,3.36c-0.97,0.91-2.17,1.6-3.58,2.08c-1.42,0.48-3.05,0.71-4.89,0.71H27.45z M29.7,160.03h3.4
		c1.15,0,2.16-0.14,3.01-0.43c0.85-0.28,1.56-0.71,2.13-1.28c0.57-0.57,0.99-1.28,1.28-2.14c0.28-0.86,0.43-1.87,0.43-3.02
		c0-2.31-0.57-4.02-1.72-5.15c-1.14-1.12-2.85-1.69-5.12-1.69h-3.4V160.03z"/>
	<path d="M49.44,163.89c-0.79,0-1.4-0.21-1.82-0.64c-0.43-0.43-0.64-1.03-0.64-1.82v-16.49c0-0.79,0.21-1.4,0.64-1.82
		c0.43-0.43,1.03-0.64,1.82-0.64h10.6c0.61,0,1.07,0.16,1.38,0.47c0.31,0.31,0.47,0.76,0.47,1.35c0,0.61-0.16,1.07-0.47,1.38
		c-0.31,0.31-0.77,0.47-1.38,0.47h-8.56v5.01h7.87c0.63,0,1.1,0.16,1.41,0.47c0.31,0.31,0.47,0.77,0.47,1.38
		c0,0.61-0.16,1.07-0.47,1.38c-0.31,0.31-0.78,0.47-1.41,0.47h-7.87v5.35h8.56c0.61,0,1.07,0.16,1.38,0.47
		c0.31,0.31,0.47,0.76,0.47,1.35c0,0.61-0.16,1.07-0.47,1.38c-0.31,0.31-0.77,0.47-1.38,0.47H49.44z"/>
	<path d="M73.25,163.89c-0.79,0-1.4-0.21-1.82-0.64c-0.43-0.43-0.64-1.03-0.64-1.82v-16.49c0-0.79,0.21-1.4,0.64-1.82
		c0.43-0.43,1.03-0.64,1.82-0.64h10.6c0.61,0,1.07,0.16,1.38,0.47c0.31,0.31,0.47,0.76,0.47,1.35c0,0.61-0.16,1.07-0.47,1.38
		c-0.31,0.31-0.77,0.47-1.38,0.47h-8.56v5.01h7.87c0.63,0,1.1,0.16,1.41,0.47c0.31,0.31,0.47,0.77,0.47,1.38
		c0,0.61-0.16,1.07-0.47,1.38c-0.31,0.31-0.78,0.47-1.41,0.47h-7.87v5.35h8.56c0.61,0,1.07,0.16,1.38,0.47
		c0.31,0.31,0.47,0.76,0.47,1.35c0,0.61-0.16,1.07-0.47,1.38c-0.31,0.31-0.77,0.47-1.38,0.47H73.25z"/>
	<path d="M96.55,164.16c-0.65,0-1.18-0.15-1.59-0.44c-0.42-0.29-0.75-0.74-1.02-1.35l-7.65-17.01c-0.28-0.61-0.36-1.15-0.24-1.62
		c0.12-0.48,0.37-0.85,0.76-1.12c0.38-0.27,0.85-0.41,1.4-0.41c0.69,0,1.21,0.16,1.58,0.47c0.36,0.31,0.67,0.77,0.91,1.38
		l6.71,15.52h-1.52l6.71-15.55c0.26-0.61,0.58-1.06,0.94-1.37c0.36-0.3,0.87-0.46,1.52-0.46c0.55,0,1,0.14,1.35,0.41
		c0.35,0.27,0.58,0.65,0.67,1.12c0.09,0.48,0,1.02-0.26,1.62l-7.65,17.01c-0.28,0.61-0.62,1.06-1.02,1.35
		C97.75,164.02,97.22,164.16,96.55,164.16z"/>
	<path d="M110.67,163.89c-0.79,0-1.4-0.21-1.82-0.64c-0.43-0.43-0.64-1.03-0.64-1.82v-16.49c0-0.79,0.21-1.4,0.64-1.82
		c0.43-0.43,1.03-0.64,1.82-0.64h10.6c0.61,0,1.07,0.16,1.38,0.47c0.31,0.31,0.47,0.76,0.47,1.35c0,0.61-0.16,1.07-0.47,1.38
		c-0.31,0.31-0.77,0.47-1.38,0.47h-8.56v5.01h7.87c0.63,0,1.1,0.16,1.41,0.47c0.31,0.31,0.47,0.77,0.47,1.38
		c0,0.61-0.16,1.07-0.47,1.38c-0.31,0.31-0.78,0.47-1.41,0.47h-7.87v5.35h8.56c0.61,0,1.07,0.16,1.38,0.47
		c0.31,0.31,0.47,0.76,0.47,1.35c0,0.61-0.16,1.07-0.47,1.38c-0.31,0.31-0.77,0.47-1.38,0.47H110.67z"/>
	<path d="M127.25,164.16c-0.71,0-1.25-0.2-1.62-0.59c-0.37-0.39-0.56-0.96-0.56-1.69v-17.31c0-0.77,0.19-1.36,0.56-1.76
		c0.37-0.4,0.88-0.61,1.5-0.61c0.55,0,0.97,0.11,1.26,0.32c0.29,0.21,0.63,0.56,1.02,1.05l10.66,13.58h-0.82v-12.69
		c0-0.71,0.19-1.26,0.56-1.66c0.37-0.4,0.92-0.59,1.62-0.59c0.71,0,1.25,0.2,1.63,0.59c0.37,0.39,0.56,0.95,0.56,1.66v17.52
		c0,0.67-0.17,1.2-0.52,1.59c-0.34,0.39-0.81,0.59-1.4,0.59c-0.57,0-1.02-0.11-1.35-0.33c-0.33-0.22-0.69-0.58-1.08-1.06
		l-10.63-13.58h0.79v12.69c0,0.73-0.18,1.29-0.55,1.69S127.98,164.16,127.25,164.16z"/>
	<path d="M153.89,164.16c-0.77,0-1.36-0.21-1.76-0.64c-0.41-0.42-0.61-1.02-0.61-1.79v-15.37h-5.38c-0.63,0-1.11-0.17-1.46-0.52
		c-0.34-0.34-0.52-0.82-0.52-1.43c0-0.63,0.17-1.11,0.52-1.44c0.34-0.33,0.83-0.5,1.46-0.5h15.46c0.63,0,1.11,0.17,1.46,0.5
		c0.34,0.33,0.52,0.82,0.52,1.44c0,0.61-0.17,1.08-0.52,1.43s-0.83,0.52-1.46,0.52h-5.38v15.37c0,0.77-0.2,1.37-0.59,1.79
		C155.24,163.95,154.66,164.16,153.89,164.16z"/>
	<path d="M172.75,164.22c-2.11,0-3.95-0.46-5.54-1.38c-1.59-0.92-2.82-2.21-3.71-3.87c-0.88-1.66-1.32-3.59-1.32-5.8
		c0-1.68,0.25-3.19,0.74-4.54c0.5-1.35,1.21-2.5,2.14-3.46c0.93-0.96,2.05-1.71,3.36-2.23c1.31-0.53,2.75-0.79,4.33-0.79
		c2.15,0,4.01,0.46,5.59,1.37c1.58,0.91,2.81,2.19,3.69,3.84c0.88,1.65,1.32,3.58,1.32,5.79c0,1.68-0.25,3.2-0.76,4.56
		c-0.51,1.36-1.23,2.52-2.16,3.49c-0.93,0.97-2.05,1.72-3.34,2.25C175.79,163.96,174.35,164.22,172.75,164.22z M172.75,160.21
		c1.19,0,2.21-0.28,3.05-0.84c0.84-0.56,1.49-1.37,1.94-2.43c0.46-1.06,0.68-2.32,0.68-3.78c0-2.23-0.5-3.95-1.49-5.18
		c-0.99-1.22-2.39-1.84-4.19-1.84c-1.17,0-2.19,0.27-3.04,0.82c-0.85,0.55-1.5,1.35-1.94,2.4c-0.45,1.05-0.67,2.32-0.67,3.8
		c0,2.21,0.5,3.93,1.49,5.18C169.58,159.59,170.97,160.21,172.75,160.21z"/>
	<path d="M193.13,164.22c-0.85,0-1.72-0.07-2.6-0.2c-0.88-0.13-1.72-0.32-2.52-0.56c-0.8-0.24-1.51-0.55-2.14-0.91
		c-0.45-0.24-0.76-0.56-0.94-0.96c-0.18-0.39-0.25-0.79-0.2-1.2c0.05-0.4,0.2-0.76,0.46-1.08c0.25-0.31,0.58-0.52,0.97-0.61
		s0.84-0.02,1.32,0.23c0.83,0.47,1.74,0.81,2.72,1.03c0.98,0.22,1.96,0.33,2.93,0.33c1.48,0,2.53-0.23,3.16-0.68
		c0.63-0.46,0.94-1.03,0.94-1.72c0-0.59-0.22-1.05-0.67-1.4c-0.45-0.34-1.23-0.64-2.34-0.88l-3.43-0.73
		c-1.94-0.4-3.39-1.1-4.33-2.08c-0.94-0.98-1.41-2.27-1.41-3.87c0-1.01,0.21-1.93,0.64-2.76c0.42-0.83,1.02-1.55,1.79-2.16
		c0.77-0.61,1.69-1.07,2.75-1.4c1.06-0.32,2.23-0.49,3.51-0.49c1.13,0,2.25,0.14,3.34,0.41c1.09,0.27,2.05,0.67,2.89,1.2
		c0.4,0.24,0.68,0.55,0.83,0.93c0.15,0.37,0.2,0.75,0.15,1.12c-0.05,0.38-0.2,0.7-0.46,0.99c-0.25,0.28-0.57,0.47-0.96,0.55
		c-0.39,0.08-0.85-0.01-1.4-0.27c-0.67-0.34-1.38-0.6-2.13-0.76c-0.75-0.16-1.52-0.24-2.31-0.24c-0.85,0-1.57,0.11-2.17,0.33
		c-0.6,0.22-1.05,0.54-1.37,0.94c-0.31,0.41-0.47,0.87-0.47,1.4c0,0.59,0.21,1.06,0.64,1.43c0.43,0.36,1.16,0.66,2.22,0.88
		l3.43,0.73c1.98,0.43,3.46,1.11,4.43,2.05c0.97,0.94,1.46,2.18,1.46,3.72c0,1.01-0.2,1.93-0.61,2.75
		c-0.41,0.82-0.99,1.52-1.76,2.11c-0.77,0.59-1.69,1.04-2.76,1.35C195.67,164.07,194.46,164.22,193.13,164.22z"/>
	<path d="M212.84,163.89c-0.79,0-1.4-0.21-1.82-0.64c-0.42-0.43-0.64-1.03-0.64-1.82v-16.49c0-0.79,0.21-1.4,0.64-1.82
		c0.43-0.43,1.03-0.64,1.82-0.64h5.92c3.66,0,6.49,0.93,8.49,2.78c1.99,1.85,2.99,4.49,2.99,7.91c0,1.72-0.26,3.25-0.77,4.57
		s-1.26,2.44-2.23,3.36s-2.17,1.6-3.58,2.08c-1.42,0.48-3.05,0.71-4.89,0.71H212.84z M215.08,160.03h3.4c1.15,0,2.16-0.14,3.01-0.43
		c0.85-0.28,1.56-0.71,2.13-1.28c0.57-0.57,0.99-1.28,1.28-2.14c0.28-0.86,0.43-1.87,0.43-3.02c0-2.31-0.57-4.02-1.72-5.15
		c-1.14-1.12-2.85-1.69-5.12-1.69h-3.4V160.03z"/>
	<path d="M234.82,163.89c-0.79,0-1.4-0.21-1.82-0.64c-0.43-0.43-0.64-1.03-0.64-1.82v-16.49c0-0.79,0.21-1.4,0.64-1.82
		c0.43-0.43,1.03-0.64,1.82-0.64h10.6c0.61,0,1.07,0.16,1.38,0.47c0.31,0.31,0.47,0.76,0.47,1.35c0,0.61-0.16,1.07-0.47,1.38
		c-0.31,0.31-0.77,0.47-1.38,0.47h-8.56v5.01h7.87c0.63,0,1.1,0.16,1.41,0.47c0.31,0.31,0.47,0.77,0.47,1.38
		c0,0.61-0.16,1.07-0.47,1.38c-0.31,0.31-0.79,0.47-1.41,0.47h-7.87v5.35h8.56c0.61,0,1.07,0.16,1.38,0.47
		c0.31,0.31,0.47,0.76,0.47,1.35c0,0.61-0.16,1.07-0.47,1.38c-0.31,0.31-0.77,0.47-1.38,0.47H234.82z"/>
	<path d="M266.56,164.22c-2.31,0-4.28-0.46-5.92-1.37c-1.64-0.91-2.9-2.19-3.78-3.84c-0.88-1.65-1.32-3.6-1.32-5.85
		c0-1.68,0.25-3.19,0.74-4.54c0.5-1.35,1.22-2.5,2.17-3.46c0.95-0.96,2.11-1.71,3.48-2.23c1.37-0.53,2.91-0.79,4.63-0.79
		c1.01,0,2.04,0.13,3.08,0.38c1.04,0.25,1.95,0.61,2.72,1.08c0.51,0.28,0.85,0.64,1.03,1.06c0.18,0.43,0.24,0.85,0.17,1.28
		c-0.07,0.43-0.24,0.79-0.52,1.09c-0.27,0.3-0.61,0.5-1.02,0.58c-0.41,0.08-0.86-0.01-1.37-0.27c-0.61-0.36-1.25-0.63-1.91-0.79
		c-0.67-0.16-1.35-0.24-2.04-0.24c-1.36,0-2.5,0.27-3.42,0.8c-0.92,0.54-1.62,1.31-2.08,2.32c-0.47,1.01-0.7,2.26-0.7,3.74
		c0,1.46,0.23,2.7,0.7,3.74c0.47,1.03,1.16,1.82,2.08,2.35c0.92,0.54,2.06,0.8,3.42,0.8c0.65,0,1.31-0.08,1.99-0.24
		c0.68-0.16,1.33-0.41,1.96-0.76c0.53-0.26,1-0.36,1.41-0.29c0.41,0.07,0.76,0.25,1.03,0.55c0.27,0.29,0.45,0.64,0.52,1.05
		c0.07,0.41,0.02,0.81-0.14,1.21c-0.16,0.41-0.47,0.75-0.91,1.03c-0.75,0.51-1.67,0.9-2.76,1.18
		C268.72,164.08,267.63,164.22,266.56,164.22z"/>
	<path d="M275.64,164.16c-0.57,0-1.03-0.13-1.38-0.4c-0.35-0.26-0.58-0.62-0.67-1.06c-0.09-0.44-0.01-0.94,0.26-1.49l7.78-17.04
		c0.32-0.69,0.71-1.19,1.15-1.5c0.45-0.31,0.96-0.47,1.55-0.47c0.59,0,1.1,0.16,1.55,0.47c0.44,0.31,0.82,0.82,1.12,1.5l7.84,17.04
		c0.26,0.55,0.36,1.05,0.29,1.5c-0.07,0.46-0.28,0.81-0.62,1.06c-0.34,0.25-0.79,0.38-1.34,0.38c-0.69,0-1.22-0.16-1.59-0.49
		c-0.38-0.32-0.7-0.83-0.99-1.52l-1.82-4.22l1.88,1.31h-12.66l1.88-1.31l-1.79,4.22c-0.3,0.71-0.62,1.22-0.96,1.53
		C276.78,164.01,276.29,164.16,275.64,164.16z M284.27,147.49l-3.89,9.26l-0.82-1.18h9.51l-0.82,1.18l-3.92-9.26H284.27z"/>
	<path d="M298.75,164.16c-0.77,0-1.36-0.21-1.76-0.64c-0.41-0.42-0.61-1.02-0.61-1.79v-16.86c0-0.79,0.21-1.39,0.62-1.79
		c0.41-0.4,1.01-0.61,1.78-0.61h7.38c2.39,0,4.23,0.6,5.53,1.81c1.3,1.2,1.94,2.88,1.94,5.03c0,2.15-0.65,3.83-1.94,5.04
		c-1.3,1.21-3.14,1.82-5.53,1.82h-5.07v5.56c0,0.77-0.2,1.37-0.59,1.79C300.11,163.95,299.52,164.16,298.75,164.16z M301.09,152.53
		h4.28c1.21,0,2.14-0.27,2.78-0.82c0.64-0.55,0.96-1.35,0.96-2.4c0-1.05-0.32-1.84-0.96-2.37c-0.64-0.53-1.56-0.79-2.78-0.79h-4.28
		V152.53z"/>
	<path d="M313.39,164.16c-0.57,0-1.03-0.13-1.38-0.4c-0.35-0.26-0.58-0.62-0.67-1.06c-0.09-0.44-0.01-0.94,0.26-1.49l7.78-17.04
		c0.32-0.69,0.71-1.19,1.15-1.5c0.44-0.31,0.96-0.47,1.55-0.47c0.59,0,1.1,0.16,1.55,0.47c0.45,0.31,0.82,0.82,1.12,1.5l7.84,17.04
		c0.26,0.55,0.36,1.05,0.29,1.5c-0.07,0.46-0.28,0.81-0.62,1.06c-0.34,0.25-0.79,0.38-1.34,0.38c-0.69,0-1.22-0.16-1.59-0.49
		c-0.37-0.32-0.7-0.83-0.99-1.52l-1.82-4.22l1.88,1.31h-12.66l1.88-1.31l-1.79,4.22c-0.3,0.71-0.62,1.22-0.96,1.53
		C314.53,164.01,314.04,164.16,313.39,164.16z M322.02,147.49l-3.89,9.26l-0.82-1.18h9.51l-0.82,1.18l-3.92-9.26H322.02z"/>
	<path d="M344.01,164.22c-2.31,0-4.28-0.46-5.92-1.37c-1.64-0.91-2.9-2.19-3.78-3.84c-0.88-1.65-1.32-3.6-1.32-5.85
		c0-1.68,0.25-3.19,0.74-4.54c0.5-1.35,1.22-2.5,2.17-3.46c0.95-0.96,2.11-1.71,3.48-2.23c1.37-0.53,2.91-0.79,4.63-0.79
		c1.01,0,2.04,0.13,3.08,0.38c1.04,0.25,1.95,0.61,2.72,1.08c0.51,0.28,0.85,0.64,1.03,1.06s0.24,0.85,0.17,1.28
		c-0.07,0.43-0.24,0.79-0.52,1.09c-0.27,0.3-0.61,0.5-1.02,0.58c-0.41,0.08-0.86-0.01-1.37-0.27c-0.61-0.36-1.25-0.63-1.91-0.79
		c-0.67-0.16-1.35-0.24-2.03-0.24c-1.36,0-2.5,0.27-3.42,0.8c-0.92,0.54-1.61,1.31-2.08,2.32c-0.47,1.01-0.7,2.26-0.7,3.74
		c0,1.46,0.23,2.7,0.7,3.74c0.47,1.03,1.16,1.82,2.08,2.35c0.92,0.54,2.06,0.8,3.42,0.8c0.65,0,1.31-0.08,1.99-0.24
		c0.68-0.16,1.33-0.41,1.96-0.76c0.53-0.26,1-0.36,1.41-0.29c0.41,0.07,0.76,0.25,1.03,0.55c0.27,0.29,0.45,0.64,0.52,1.05
		c0.07,0.41,0.03,0.81-0.14,1.21c-0.16,0.41-0.47,0.75-0.91,1.03c-0.75,0.51-1.67,0.9-2.76,1.18
		C346.16,164.08,345.08,164.22,344.01,164.22z"/>
	<path d="M355.24,164.16c-0.77,0-1.36-0.21-1.76-0.64c-0.41-0.42-0.61-1.02-0.61-1.79v-17.1c0-0.77,0.2-1.37,0.61-1.79
		c0.4-0.43,0.99-0.64,1.76-0.64c0.75,0,1.33,0.21,1.73,0.64c0.4,0.43,0.61,1.02,0.61,1.79v17.1c0,0.77-0.2,1.37-0.59,1.79
		C356.6,163.95,356.01,164.16,355.24,164.16z"/>
	<path d="M367.85,164.16c-0.77,0-1.36-0.21-1.76-0.64c-0.41-0.42-0.61-1.02-0.61-1.79v-15.37h-5.38c-0.63,0-1.11-0.17-1.46-0.52
		c-0.34-0.34-0.52-0.82-0.52-1.43c0-0.63,0.17-1.11,0.52-1.44c0.34-0.33,0.83-0.5,1.46-0.5h15.46c0.63,0,1.11,0.17,1.46,0.5
		c0.34,0.33,0.52,0.82,0.52,1.44c0,0.61-0.17,1.08-0.52,1.43c-0.34,0.34-0.83,0.52-1.46,0.52h-5.38v15.37c0,0.77-0.2,1.37-0.59,1.79
		C369.2,163.95,368.62,164.16,367.85,164.16z"/>
	<path d="M376.26,164.16c-0.57,0-1.03-0.13-1.38-0.4c-0.35-0.26-0.58-0.62-0.67-1.06c-0.09-0.44-0.01-0.94,0.26-1.49l7.78-17.04
		c0.32-0.69,0.71-1.19,1.15-1.5c0.45-0.31,0.96-0.47,1.55-0.47c0.59,0,1.1,0.16,1.55,0.47c0.44,0.31,0.82,0.82,1.12,1.5l7.84,17.04
		c0.26,0.55,0.36,1.05,0.29,1.5c-0.07,0.46-0.28,0.81-0.62,1.06c-0.34,0.25-0.79,0.38-1.34,0.38c-0.69,0-1.22-0.16-1.59-0.49
		c-0.38-0.32-0.7-0.83-0.99-1.52l-1.82-4.22l1.88,1.31H378.6l1.88-1.31l-1.79,4.22c-0.3,0.71-0.62,1.22-0.96,1.53
		C377.4,164.01,376.91,164.16,376.26,164.16z M384.89,147.49l-3.89,9.26l-0.82-1.18h9.51l-0.82,1.18l-3.92-9.26H384.89z"/>
	<path d="M406.87,164.22c-2.31,0-4.28-0.46-5.92-1.37c-1.64-0.91-2.9-2.19-3.78-3.84c-0.88-1.65-1.32-3.6-1.32-5.85
		c0-1.68,0.25-3.19,0.74-4.54c0.5-1.35,1.22-2.5,2.17-3.46c0.95-0.96,2.11-1.71,3.48-2.23c1.37-0.53,2.91-0.79,4.63-0.79
		c1.01,0,2.04,0.13,3.08,0.38c1.04,0.25,1.95,0.61,2.72,1.08c0.51,0.28,0.85,0.64,1.03,1.06c0.18,0.43,0.24,0.85,0.17,1.28
		c-0.07,0.43-0.24,0.79-0.52,1.09c-0.27,0.3-0.61,0.5-1.02,0.58c-0.41,0.08-0.86-0.01-1.37-0.27c-0.61-0.36-1.25-0.63-1.91-0.79
		c-0.67-0.16-1.35-0.24-2.04-0.24c-1.36,0-2.5,0.27-3.42,0.8c-0.92,0.54-1.62,1.31-2.08,2.32c-0.47,1.01-0.7,2.26-0.7,3.74
		c0,1.46,0.23,2.7,0.7,3.74c0.47,1.03,1.16,1.82,2.08,2.35c0.92,0.54,2.06,0.8,3.42,0.8c0.65,0,1.31-0.08,1.99-0.24
		c0.68-0.16,1.33-0.41,1.96-0.76c0.53-0.26,1-0.36,1.41-0.29c0.41,0.07,0.76,0.25,1.03,0.55c0.27,0.29,0.45,0.64,0.52,1.05
		c0.07,0.41,0.02,0.81-0.14,1.21c-0.16,0.41-0.47,0.75-0.91,1.03c-0.75,0.51-1.67,0.9-2.76,1.18
		C409.03,164.08,407.95,164.22,406.87,164.22z"/>
	<path d="M418.11,164.16c-0.77,0-1.36-0.21-1.76-0.64c-0.41-0.42-0.61-1.02-0.61-1.79v-17.1c0-0.77,0.2-1.37,0.61-1.79
		c0.4-0.43,0.99-0.64,1.76-0.64c0.75,0,1.33,0.21,1.73,0.64c0.41,0.43,0.61,1.02,0.61,1.79v17.1c0,0.77-0.2,1.37-0.59,1.79
		C419.46,163.95,418.88,164.16,418.11,164.16z"/>
	<path d="M433.17,164.22c-2.11,0-3.95-0.46-5.54-1.38c-1.59-0.92-2.82-2.21-3.71-3.87c-0.88-1.66-1.32-3.59-1.32-5.8
		c0-1.68,0.25-3.19,0.74-4.54c0.5-1.35,1.21-2.5,2.14-3.46c0.93-0.96,2.05-1.71,3.36-2.23c1.31-0.53,2.75-0.79,4.33-0.79
		c2.15,0,4.01,0.46,5.59,1.37c1.58,0.91,2.81,2.19,3.69,3.84c0.88,1.65,1.32,3.58,1.32,5.79c0,1.68-0.25,3.2-0.76,4.56
		c-0.51,1.36-1.23,2.52-2.16,3.49c-0.93,0.97-2.05,1.72-3.34,2.25C436.22,163.96,434.77,164.22,433.17,164.22z M433.17,160.21
		c1.19,0,2.21-0.28,3.05-0.84c0.84-0.56,1.49-1.37,1.94-2.43s0.68-2.32,0.68-3.78c0-2.23-0.5-3.95-1.49-5.18
		c-0.99-1.22-2.39-1.84-4.19-1.84c-1.17,0-2.19,0.27-3.04,0.82c-0.85,0.55-1.5,1.35-1.94,2.4c-0.45,1.05-0.67,2.32-0.67,3.8
		c0,2.21,0.5,3.93,1.49,5.18C430.01,159.59,431.39,160.21,433.17,160.21z M434.97,140.44c-0.3,0.3-0.63,0.46-0.97,0.47
		c-0.34,0.01-0.65-0.09-0.93-0.3c-0.27-0.21-0.45-0.47-0.53-0.77c-0.08-0.3-0.01-0.62,0.21-0.94l2.19-3.22
		c0.24-0.4,0.54-0.64,0.9-0.71c0.35-0.07,0.71-0.04,1.06,0.09c0.35,0.13,0.64,0.33,0.87,0.61c0.22,0.27,0.34,0.58,0.36,0.91
		c0.02,0.33-0.12,0.66-0.43,0.99L434.97,140.44z"/>
	<path d="M448.09,164.16c-0.71,0-1.25-0.2-1.62-0.59c-0.37-0.39-0.56-0.96-0.56-1.69v-17.31c0-0.77,0.19-1.36,0.56-1.76
		c0.37-0.4,0.88-0.61,1.5-0.61c0.55,0,0.97,0.11,1.26,0.32c0.29,0.21,0.63,0.56,1.02,1.05l10.66,13.58h-0.82v-12.69
		c0-0.71,0.19-1.26,0.56-1.66c0.37-0.4,0.92-0.59,1.63-0.59c0.71,0,1.25,0.2,1.62,0.59c0.37,0.39,0.56,0.95,0.56,1.66v17.52
		c0,0.67-0.17,1.2-0.52,1.59c-0.34,0.39-0.81,0.59-1.4,0.59c-0.57,0-1.02-0.11-1.35-0.33c-0.33-0.22-0.69-0.58-1.08-1.06
		l-10.63-13.58h0.79v12.69c0,0.73-0.18,1.29-0.55,1.69C449.36,163.97,448.82,164.16,448.09,164.16z"/>
</g>
</svg>
