<?xml version="1.0" encoding="UTF-8" standalone="no"?>
<svg
   xmlns:dc="http://purl.org/dc/elements/1.1/"
   xmlns:cc="http://creativecommons.org/ns#"
   xmlns:rdf="http://www.w3.org/1999/02/22-rdf-syntax-ns#"
   xmlns:svg="http://www.w3.org/2000/svg"
   xmlns="http://www.w3.org/2000/svg"
   xmlns:sodipodi="http://sodipodi.sourceforge.net/DTD/sodipodi-0.dtd"
   xmlns:inkscape="http://www.inkscape.org/namespaces/inkscape"
   width="100"
   height="87"
   viewBox="0 0 26.458333 23.01874"
   version="1.1"
   id="svg8"
   inkscape:version="1.0.2-2 (e86c870879, 2021-01-15)"
   sodipodi:docname="ETB_Bogotá_logo.svg">
  <title
     id="title29">Esap logo</title>
  <defs
     id="defs2" />
  <sodipodi:namedview
     id="base"
     pagecolor="#ffffff"
     bordercolor="#666666"
     borderopacity="1.0"
     inkscape:pageopacity="0"
     inkscape:pageshadow="2"
     inkscape:zoom="2"
     inkscape:cx="133.39221"
     inkscape:cy="-16.661903"
     inkscape:document-units="px"
     inkscape:current-layer="layer1"
     inkscape:document-rotation="0"
     showgrid="false"
     units="px"
     inkscape:showpageshadow="false"
     inkscape:window-width="1366"
     inkscape:window-height="745"
     inkscape:window-x="-8"
     inkscape:window-y="-8"
     inkscape:window-maximized="1"
     objecttolerance="11.8"
     guidetolerance="10.6" />
  <metadata
     id="metadata5">
    <rdf:RDF>
      <cc:Work
         rdf:about="">
        <dc:format>image/svg+xml</dc:format>
        <dc:type
           rdf:resource="http://purl.org/dc/dcmitype/StillImage" />
        <dc:title>Esap logo</dc:title>
        <cc:license
           rdf:resource="http://scripts.sil.org/OFL" />
        <dc:date>18 de marzo 2021</dc:date>
      </cc:Work>
      <cc:License
         rdf:about="http://scripts.sil.org/OFL">
        <cc:permits
           rdf:resource="http://scripts.sil.org/pub/OFL/Reproduction" />
        <cc:permits
           rdf:resource="http://scripts.sil.org/pub/OFL/Distribution" />
        <cc:permits
           rdf:resource="http://scripts.sil.org/pub/OFL/Embedding" />
        <cc:permits
           rdf:resource="http://scripts.sil.org/pub/OFL/DerivativeWorks" />
        <cc:requires
           rdf:resource="http://scripts.sil.org/pub/OFL/Notice" />
        <cc:requires
           rdf:resource="http://scripts.sil.org/pub/OFL/Attribution" />
        <cc:requires
           rdf:resource="http://scripts.sil.org/pub/OFL/ShareAlike" />
        <cc:requires
           rdf:resource="http://scripts.sil.org/pub/OFL/DerivativeRenaming" />
        <cc:requires
           rdf:resource="http://scripts.sil.org/pub/OFL/BundlingWhenSelling" />
      </cc:License>
    </rdf:RDF>
  </metadata>
  <g
     inkscape:label="Capa 1"
     inkscape:groupmode="layer"
     id="layer1">
    <g
       id="rect47"
       style="opacity:1"
       inkscape:transform-center-x="0.52916666"
       inkscape:transform-center-y="0.79374994"
       transform="translate(-26.51797,125.72359)" />
    <g
       id="rect77"
       transform="matrix(0.98179228,-0.18995768,0,1,-32.808334,75.670834)"
       style="opacity:1" />
    <path
       id="path162"
       style="fill:#003287;fill-opacity:1;stroke:#fff100;stroke-width:0"
       d="m 13.859299,0.0509651 a 2.6787032,2.6787032 0 0 0 -2.659227,2.6787528 2.6787032,2.6787032 0 0 0 2.678752,2.6787529 2.6787032,2.6787032 0 0 0 2.678753,-2.6787529 2.6787032,2.6787032 0 0 0 -2.678753,-2.6787528 2.6787032,2.6787032 0 0 0 -0.01952,0 z m 3.300315,5.7034592 a 2.6787032,2.6787032 0 0 0 -2.659227,2.6787529 2.6787032,2.6787032 0 0 0 2.678754,2.6787528 2.6787032,2.6787032 0 0 0 2.678753,-2.6787528 2.6787032,2.6787032 0 0 0 -2.678753,-2.6787529 2.6787032,2.6787032 0 0 0 -0.01952,0 z m -6.954844,0.00324 a 2.6787032,2.6787032 0 0 0 -2.6589779,2.6787599 2.6787032,2.6787032 0 0 0 2.6787529,2.6787528 2.6787032,2.6787032 0 0 0 2.678503,-2.6787528 2.6787032,2.6787032 0 0 0 -2.678503,-2.678753 2.6787032,2.6787032 0 0 0 -0.01978,0 z M 6.5697648,11.457874 a 2.6787032,2.6787032 0 0 0 -2.659227,2.678756 2.6787032,2.6787032 0 0 0 2.6787529,2.678752 2.6787032,2.6787032 0 0 0 2.6787547,-2.678752 2.6787032,2.6787032 0 0 0 -2.6787547,-2.678755 2.6787032,2.6787032 0 0 0 -0.019526,-10e-7 z m 7.0171782,0 a 2.6787032,2.6787032 0 0 0 -2.659228,2.678754 2.6787032,2.6787032 0 0 0 2.678753,2.678753 2.6787032,2.6787032 0 0 0 2.678753,-2.678753 2.6787032,2.6787032 0 0 0 -2.678753,-2.678754 2.6787032,2.6787032 0 0 0 -0.01952,0 z m 6.856967,0 a 2.6787032,2.6787032 0 0 0 -2.659227,2.678754 2.6787032,2.6787032 0 0 0 2.678753,2.678753 2.6787032,2.6787032 0 0 0 2.678752,-2.678753 2.6787032,2.6787032 0 0 0 -2.678752,-2.678754 2.6787032,2.6787032 0 0 0 -0.01952,0 z M 9.8820965,17.144312 c -0.1739491,-5.34e-4 -0.3477375,0.01567 -0.5181766,0.04832 -0.7106963,0.110238 -1.3621569,0.536442 -1.7335184,1.15476 -0.2395658,0.375056 -0.4041603,0.884327 -0.1879945,1.304957 0.1250181,0.256194 0.4300417,0.277655 0.6763849,0.318917 0.5813666,0.093 1.1034378,0.580851 1.1650232,1.174536 0.011706,0.317165 -0.3670789,0.446392 -0.6208115,0.341697 -0.4341789,-0.178601 -0.781332,-0.510565 -1.102192,-0.844357 -0.083141,-0.07699 -0.2026962,-0.187844 -0.3221724,-0.116403 -0.082525,0.176133 0.031406,0.354165 0.1003827,0.513672 0.2808289,0.604154 0.726073,1.163425 1.3450099,1.443639 0.7704327,0.357813 1.7243112,0.382352 2.4627202,-0.06784 0.609697,-0.364587 0.976726,-1.021604 1.167026,-1.687959 0.07144,-0.216781 0.07897,-0.494524 -0.10764,-0.657108 -0.174903,-0.177984 -0.441622,-0.159411 -0.660866,-0.241318 -0.376902,-0.124403 -0.691624,-0.40285 -0.883155,-0.747729 -0.107775,-0.191532 -0.227278,-0.411315 -0.156455,-0.637333 0.0505,-0.237105 0.350373,-0.272946 0.546215,-0.224293 0.402153,0.149652 0.748476,0.460144 0.918451,0.857372 0.05234,0.122555 0.12812,0.283289 0.287627,0.270353 0.11393,-0.03634 0.145163,-0.169414 0.127916,-0.27411 -0.142261,-0.599226 -0.512834,-1.144279 -1.025841,-1.486693 -0.433255,-0.292377 -0.956081,-0.44178 -1.4779335,-0.44308 z m -6.9841326,0.185242 a 2.7235621,2.7235621 0 0 0 -2.72356199,2.723563 2.7235621,2.7235621 0 0 0 2.72356199,2.723562 2.7235621,2.7235621 0 0 0 2.6049063,-1.928523 c 0.012509,-0.108334 -0.03328,-0.24526 -0.1594594,-0.232803 -0.1447268,0.0099 -0.2051212,0.167519 -0.2888761,0.263594 C 4.8334405,21.201654 4.431488,21.369649 4.0459649,21.342553 3.714631,21.322849 3.3208898,21.272495 3.1195026,20.972569 3.0043363,20.80875 3.0722782,20.575336 3.2324013,20.46941 c 0.2906841,-0.197073 0.6534258,-0.254433 0.9983043,-0.229799 0.1410306,0.0061 0.3361513,0.02535 0.4032786,-0.132924 0.036953,-0.157043 -0.1391046,-0.280379 -0.2813672,-0.265596 -0.3528848,0.01847 -0.7697884,0.03691 -1.034605,-0.242069 -0.1686173,-0.152116 -0.3295942,-0.420627 -0.1694718,-0.634328 0.2256725,-0.302309 0.602499,-0.438685 0.9750259,-0.432567 0.16933,0.0028 0.3376396,0.03516 0.4906411,0.09463 0.2845235,0.109624 0.4601064,0.368926 0.6072941,0.620812 0.090184,0.101403 0.199868,0.03429 0.2575878,-0.06283 A 2.7235621,2.7235621 0 0 0 2.8979639,17.329559 Z M 23.453346,17.47825 a 2.6787032,2.6787032 0 0 0 -2.658977,2.678502 2.6787032,2.6787032 0 0 0 2.678753,2.678754 2.6787032,2.6787032 0 0 0 0.143188,-0.0037 l -0.213279,-0.469444 c 0.624479,0.05235 1.291371,0.01101 1.836401,-0.33018 0.212877,-0.131131 0.398478,-0.305835 0.538703,-0.511669 a 2.6787032,2.6787032 0 0 0 0.373492,-1.363784 2.6787032,2.6787032 0 0 0 -2.678505,-2.678503 2.6787032,2.6787032 0 0 0 -0.01978,0 z m -6.798141,5.33e-4 a 2.6787032,2.6787032 0 0 0 -2.659228,2.678502 2.6787032,2.6787032 0 0 0 2.040168,2.601651 v -1.07941 c 0,-0.326353 0.262667,-0.58902 0.589021,-0.58902 0.32635,0 0.589021,0.262667 0.589019,0.58902 v 1.101691 a 2.6787032,2.6787032 0 0 0 2.139299,-2.623932 2.6787032,2.6787032 0 0 0 -2.678753,-2.678502 2.6787032,2.6787032 0 0 0 -0.01952,0 z m 0.02603,0.633328 c 0.326351,0 0.589021,0.262918 0.589021,0.589269 v 0.781522 c 0,0.326354 -0.26267,0.589272 -0.589021,0.589272 -0.326351,0 -0.589018,-0.262918 -0.589018,-0.589272 v -0.781519 c 0,-0.326353 0.262667,-0.589272 0.589018,-0.589272 z m 7.793945,0.358469 c 0.113106,-0.0077 0.229807,0.01723 0.335689,0.0786 0.282347,0.163662 0.377939,0.522703 0.214279,0.805052 l -0.392012,0.676385 c -0.163662,0.282348 -0.522705,0.377942 -0.805054,0.21428 -0.282351,-0.16366 -0.377941,-0.522704 -0.214279,-0.805052 l 0.392012,-0.676385 c 0.102292,-0.176468 0.280851,-0.280029 0.469365,-0.292883 z" />
  </g>
</svg>
