<?xml version="1.0" encoding="utf-8"?>
<!-- Generator: Adobe Illustrator 27.0.0, SVG Export Plug-In . SVG Version: 6.00 Build 0)  -->
<svg version="1.1" id="Capa_1" xmlns="http://www.w3.org/2000/svg" xmlns:xlink="http://www.w3.org/1999/xlink" x="0px" y="0px"
	 viewBox="0 0 530.67 184.67" style="enable-background:new 0 0 530.67 184.67;" xml:space="preserve">
<style type="text/css">
	.st0{fill:#4E4D4D;}
	.st1{fill:#FFCD07;}
</style>
<path class="st0" d="M309.2,102.65c1.52-0.93,3.2-1.39,5.02-1.39c2.74,0,5.22,0.89,7.42,2.67c2.21,1.78,3.31,4.02,3.31,6.73
	c0,1.32-0.34,2.67-1.03,4.06l-30.15,63.21c-0.99,2.09-2.48,3.69-4.45,4.81c-1.98,1.12-4.11,1.68-6.4,1.68
	c-2.28,0-4.42-0.56-6.4-1.68c-1.98-1.12-3.47-2.73-4.45-4.81l-30.15-63.21c-0.61-1.23-0.91-2.59-0.91-4.06
	c0-2.63,1.14-4.85,3.43-6.67c2.28-1.82,4.83-2.73,7.65-2.73c1.83,0,3.52,0.46,5.08,1.39c1.56,0.93,2.76,2.32,3.6,4.18l22.5,49.41
	l22.39-49.41C306.5,104.97,307.68,103.58,309.2,102.65"/>
<path class="st0" d="M334.96,181.58c-1.87-1.9-2.8-4.47-2.8-7.72v-62.14c0-3.17,0.93-5.71,2.8-7.61c1.86-1.9,4.4-2.84,7.59-2.84
	c3.27,0,5.86,0.95,7.77,2.84c1.9,1.9,2.85,4.43,2.85,7.61v62.14c0,3.25-0.95,5.83-2.85,7.72c-1.91,1.9-4.49,2.85-7.77,2.85
	C339.36,184.42,336.82,183.47,334.96,181.58"/>
<path class="st0" d="M369.74,181.83c-1.68-1.73-2.51-4.21-2.51-7.43v-63.11c0-3.22,0.84-5.7,2.51-7.43c1.67-1.73,4.07-2.59,7.2-2.59
	H400c8.91,0,16.58,1.67,23.01,5.01c6.43,3.34,11.36,8.12,14.79,14.33c3.43,6.21,5.14,13.61,5.14,22.18c0,8.65-1.7,16.1-5.08,22.35
	c-3.39,6.25-8.3,11.03-14.73,14.33c-6.43,3.3-14.15,4.95-23.13,4.95h-23.07C373.81,184.42,371.41,183.56,369.74,181.83
	 M398.52,166.96c7.84,0,13.72-1.98,17.65-5.96c3.92-3.97,5.88-10.05,5.88-18.22c0-8.18-1.96-14.24-5.88-18.17
	c-3.92-3.93-9.8-5.9-17.65-5.9h-10.28v48.25H398.52z"/>
<path class="st0" d="M530.66,175.22c0,2.56-1.01,4.74-3.03,6.52c-2.02,1.79-4.32,2.68-6.91,2.68c-1.75,0-3.35-0.47-4.8-1.4
	c-1.45-0.93-2.59-2.33-3.43-4.19l-5.14-11.76h-37.01l-5.25,11.76c-0.84,1.86-2,3.26-3.48,4.19c-1.48,0.93-3.1,1.4-4.85,1.4
	c-2.59,0-4.93-0.89-7.02-2.68c-2.1-1.79-3.14-3.96-3.14-6.52c0-1.4,0.34-2.83,1.03-4.31l30.15-63.13c0.99-2.1,2.46-3.71,4.4-4.83
	c1.94-1.12,4.09-1.69,6.45-1.69c2.28,0,4.41,0.57,6.4,1.69c1.98,1.13,3.46,2.74,4.45,4.83l30.15,63.13
	C530.32,172.39,530.66,173.82,530.66,175.22 M500.28,150.99l-11.42-25.97l-11.42,25.97H500.28z"/>
<path class="st0" d="M251,39.46c-3.08-1.7-5.45-4.14-7.14-7.31s-2.53-6.89-2.53-11.14c0-4.22,0.84-7.91,2.53-11.08
	s4.06-5.61,7.14-7.31c3.08-1.7,6.66-2.55,10.76-2.55c4.91,0,9.23,1.3,12.94,3.89c0.66,0.46,1.13,0.97,1.42,1.51
	c0.29,0.54,0.43,1.24,0.43,2.09c0,1.2-0.34,2.21-1.02,3.05c-0.68,0.83-1.5,1.25-2.47,1.25c-0.58,0-1.1-0.09-1.57-0.26
	c-0.46-0.17-1.01-0.45-1.62-0.84c-1.35-0.81-2.63-1.39-3.83-1.74c-1.2-0.35-2.44-0.52-3.71-0.52c-3.44,0-6.01,1.04-7.69,3.1
	c-1.68,2.07-2.53,5.21-2.53,9.43c0,4.26,0.84,7.42,2.53,9.49c1.68,2.07,4.24,3.11,7.69,3.11c1.16,0,2.28-0.18,3.36-0.55
	c1.08-0.37,2.48-0.94,4.18-1.71c0.81-0.43,1.41-0.71,1.8-0.87c0.39-0.16,0.85-0.23,1.39-0.23c0.97,0,1.79,0.42,2.47,1.25
	s1.02,1.85,1.02,3.05c0,0.81-0.14,1.5-0.43,2.06c-0.29,0.56-0.76,1.07-1.42,1.54c-3.71,2.59-8.03,3.89-12.94,3.89
	C257.66,42.01,254.07,41.16,251,39.46"/>
<path class="st0" d="M286.45,39.43c-3.08-1.72-5.45-4.16-7.11-7.31c-1.66-3.15-2.5-6.86-2.5-11.11c0-4.26,0.83-7.96,2.5-11.11
	c1.66-3.15,4.03-5.58,7.11-7.28c3.08-1.7,6.7-2.55,10.88-2.55s7.8,0.85,10.88,2.55c3.08,1.7,5.43,4.13,7.08,7.28
	c1.64,3.15,2.47,6.86,2.47,11.11c0,4.26-0.83,7.96-2.5,11.11c-1.66,3.15-4.03,5.59-7.11,7.31c-3.08,1.72-6.68,2.58-10.82,2.58
	C293.15,42.01,289.53,41.15,286.45,39.43 M304.59,30.55c1.74-2.19,2.61-5.37,2.61-9.54c0-4.18-0.88-7.35-2.64-9.52
	c-1.76-2.17-4.17-3.25-7.22-3.25c-3.1,0-5.51,1.08-7.25,3.22c-1.74,2.14-2.61,5.33-2.61,9.55s0.87,7.41,2.61,9.58
	c1.74,2.16,4.16,3.25,7.25,3.25C300.43,33.83,302.84,32.73,304.59,30.55"/>
<path class="st0" d="M322.46,40.71c-0.85-0.87-1.28-2.13-1.28-3.78V5.37c0-1.62,0.47-2.91,1.42-3.87c0.95-0.97,2.23-1.45,3.86-1.45
	c1.66,0,2.98,0.48,3.95,1.45c0.97,0.96,1.45,2.25,1.45,3.87V33.2h13.35c3.37,0,5.05,1.48,5.05,4.43c0,1.5-0.42,2.6-1.25,3.31
	c-0.83,0.71-2.1,1.06-3.8,1.06h-19.09C324.53,42.01,323.31,41.57,322.46,40.71"/>
<path class="st0" d="M357.65,39.43c-3.08-1.72-5.45-4.16-7.11-7.31c-1.66-3.15-2.5-6.86-2.5-11.11c0-4.26,0.83-7.96,2.5-11.11
	c1.66-3.15,4.03-5.58,7.11-7.28c3.08-1.7,6.7-2.55,10.88-2.55s7.8,0.85,10.88,2.55c3.08,1.7,5.43,4.13,7.08,7.28
	c1.64,3.15,2.47,6.86,2.47,11.11c0,4.26-0.83,7.96-2.5,11.11c-1.66,3.15-4.03,5.59-7.11,7.31c-3.08,1.72-6.68,2.58-10.82,2.58
	C364.35,42.01,360.73,41.15,357.65,39.43 M375.79,30.55c1.74-2.19,2.61-5.37,2.61-9.54c0-4.18-0.88-7.35-2.64-9.52
	c-1.76-2.17-4.17-3.25-7.22-3.25c-3.1,0-5.51,1.08-7.25,3.22c-1.74,2.14-2.61,5.33-2.61,9.55s0.87,7.41,2.61,9.58
	c1.74,2.16,4.16,3.25,7.25,3.25C371.63,33.83,374.05,32.73,375.79,30.55"/>
<path class="st0" d="M432.31,1.52c0.93,0.98,1.39,2.25,1.39,3.81v31.88c0,1.49-0.43,2.66-1.28,3.52c-0.85,0.86-1.97,1.29-3.36,1.29
	c-1.36,0-2.47-0.43-3.34-1.29c-0.87-0.86-1.31-2.03-1.31-3.52V19.98l-6.62,12.31c-0.66,1.25-1.35,2.14-2.09,2.67
	c-0.73,0.53-1.6,0.79-2.61,0.79c-1.01,0-1.88-0.26-2.61-0.79c-0.73-0.53-1.43-1.42-2.09-2.67l-6.56-11.96v16.88
	c0,1.45-0.43,2.61-1.31,3.49c-0.87,0.88-2,1.32-3.39,1.32c-1.35,0-2.47-0.43-3.34-1.29c-0.87-0.86-1.31-2.03-1.31-3.52V5.33
	c0-1.56,0.47-2.83,1.42-3.81c0.95-0.97,2.16-1.46,3.63-1.46c1.04,0,1.99,0.3,2.84,0.91c0.85,0.61,1.57,1.48,2.15,2.61l10.68,20.28
	l10.62-20.28c1.2-2.34,2.82-3.52,4.88-3.52C430.18,0.05,431.38,0.54,432.31,1.52"/>
<path class="st0" d="M471.3,23.99c1.28,1.77,1.91,3.94,1.91,6.53c0,2.3-0.59,4.32-1.77,6.05c-1.18,1.73-2.86,3.07-5.05,4.02
	c-2.18,0.95-4.75,1.43-7.69,1.43h-15.43c-1.59,0-2.81-0.44-3.66-1.31c-0.85-0.87-1.28-2.12-1.28-3.76V5.07
	c0-1.63,0.43-2.88,1.28-3.76c0.85-0.87,2.07-1.31,3.66-1.31h14.85c4.29,0,7.71,0.98,10.24,2.95c2.53,1.97,3.8,4.62,3.8,7.95
	c0,2.15-0.56,4.04-1.68,5.69c-1.12,1.65-2.69,2.85-4.7,3.6C468.19,20.96,470.02,22.22,471.3,23.99 M448.73,16.51h7.6
	c2.01,0,3.48-0.32,4.41-0.95c0.93-0.64,1.39-1.65,1.39-3.04c0-1.47-0.46-2.54-1.39-3.22c-0.93-0.67-2.4-1.01-4.41-1.01h-7.6V16.51z
	 M461.93,32.69c0.91-0.69,1.36-1.84,1.36-3.43c0-1.59-0.45-2.73-1.36-3.43c-0.91-0.7-2.43-1.04-4.56-1.04h-8.65v8.94h8.65
	C459.5,33.73,461.02,33.38,461.93,32.69"/>
<path class="st0" d="M477.19,40.58c-0.95-0.96-1.42-2.26-1.42-3.9V5.28c0-1.61,0.47-2.89,1.42-3.84c0.95-0.96,2.23-1.44,3.86-1.44
	c1.66,0,2.98,0.48,3.95,1.44c0.97,0.96,1.45,2.24,1.45,3.84v31.39c0,1.65-0.48,2.94-1.45,3.9c-0.97,0.96-2.28,1.44-3.95,1.44
	C479.42,42.02,478.14,41.54,477.19,40.58"/>
<path class="st0" d="M530.67,37.37c0,1.29-0.51,2.39-1.54,3.3s-2.2,1.35-3.51,1.35c-0.89,0-1.7-0.23-2.44-0.7
	c-0.73-0.47-1.32-1.18-1.74-2.12l-2.61-5.94h-18.8l-2.67,5.94c-0.43,0.94-1.02,1.65-1.77,2.12c-0.76,0.47-1.58,0.7-2.47,0.7
	c-1.32,0-2.51-0.45-3.57-1.35c-1.07-0.9-1.6-2-1.6-3.3c0-0.71,0.17-1.43,0.52-2.18L503.8,3.3c0.5-1.06,1.25-1.87,2.23-2.44
	c0.99-0.57,2.08-0.85,3.28-0.85c1.16,0,2.24,0.28,3.25,0.85c1.01,0.57,1.76,1.38,2.26,2.44l15.32,31.9
	C530.49,35.94,530.67,36.66,530.67,37.37 M515.23,25.13L509.43,12l-5.8,13.12H515.23z"/>
<path class="st0" d="M242.4,86.08c-0.28-0.29-0.42-0.68-0.42-1.16V61c0-0.46,0.15-0.82,0.44-1.11c0.29-0.28,0.68-0.42,1.16-0.42
	h9.02c2.82,0,5.01,0.69,6.57,2.06c1.56,1.37,2.34,3.31,2.34,5.83c0,2.51-0.79,4.47-2.36,5.87c-1.57,1.4-3.76,2.1-6.55,2.1h-7.5v9.6
	c0,0.48-0.14,0.87-0.42,1.16c-0.28,0.29-0.66,0.44-1.14,0.44C243.06,86.51,242.67,86.37,242.4,86.08 M252.29,72.73
	c4.08,0,6.13-1.79,6.13-5.37c0-3.53-2.04-5.29-6.13-5.29h-7.19v10.66H252.29z"/>
<path class="st0" d="M270.05,84.87c-1.84-1.1-3.26-2.67-4.24-4.69c-0.99-2.02-1.48-4.41-1.48-7.17c0-2.77,0.49-5.18,1.46-7.22
	c0.98-2.04,2.39-3.6,4.23-4.69c1.84-1.09,4.01-1.63,6.53-1.63s4.69,0.54,6.53,1.63c1.84,1.09,3.25,2.65,4.22,4.69
	c0.98,2.04,1.47,4.43,1.47,7.18c0,2.75-0.49,5.14-1.49,7.18c-0.99,2.04-2.4,3.61-4.24,4.71c-1.84,1.1-4,1.65-6.49,1.65
	S271.89,85.97,270.05,84.87 M283.18,81.07c1.58-1.89,2.38-4.58,2.38-8.08s-0.79-6.19-2.36-8.07c-1.57-1.88-3.79-2.81-6.66-2.81
	c-2.84,0-5.06,0.94-6.64,2.83c-1.59,1.89-2.38,4.57-2.38,8.05c0,3.48,0.79,6.16,2.38,8.07c1.58,1.9,3.8,2.85,6.64,2.85
	S281.59,82.96,283.18,81.07"/>
<path class="st0" d="M298.67,86.08c-0.29-0.29-0.44-0.68-0.44-1.16V62.14h-8.18c-0.46,0-0.81-0.11-1.07-0.34
	c-0.25-0.23-0.38-0.56-0.38-0.99c0-0.43,0.13-0.76,0.38-0.99c0.25-0.23,0.61-0.34,1.07-0.34h19.53c0.46,0,0.81,0.11,1.07,0.34
	s0.38,0.56,0.38,0.99c0,0.43-0.13,0.76-0.38,0.99c-0.25,0.23-0.61,0.34-1.07,0.34h-8.18v22.77c0,0.48-0.14,0.87-0.42,1.16
	c-0.28,0.29-0.66,0.44-1.14,0.44S298.96,86.37,298.67,86.08"/>
<path class="st0" d="M314.01,86.09c-0.29-0.28-0.44-0.65-0.44-1.11V61.01c0-0.46,0.15-0.83,0.44-1.11c0.29-0.28,0.68-0.42,1.16-0.42
	h14.24c0.46,0,0.81,0.12,1.07,0.35c0.25,0.23,0.38,0.55,0.38,0.96c0,0.41-0.13,0.73-0.38,0.96c-0.26,0.23-0.61,0.35-1.07,0.35
	h-12.75v9.39h11.99c0.46,0,0.81,0.11,1.07,0.35c0.25,0.23,0.38,0.55,0.38,0.96c0,0.41-0.13,0.73-0.38,0.96
	c-0.26,0.23-0.61,0.35-1.07,0.35h-11.99v9.82h12.75c0.46,0,0.81,0.11,1.07,0.32c0.25,0.22,0.38,0.54,0.38,0.98
	c0,0.41-0.13,0.73-0.38,0.96c-0.26,0.23-0.61,0.35-1.07,0.35h-14.24C314.69,86.51,314.3,86.37,314.01,86.09"/>
<path class="st0" d="M355.89,59.91c0.25,0.29,0.38,0.68,0.38,1.15v23.86c0,0.48-0.13,0.86-0.4,1.15c-0.27,0.29-0.64,0.43-1.12,0.43
	c-0.48,0-0.9-0.21-1.26-0.64l-15.8-20.99v20.04c0,0.48-0.13,0.86-0.4,1.15c-0.27,0.29-0.63,0.43-1.08,0.43
	c-0.46,0-0.81-0.14-1.07-0.43c-0.26-0.29-0.38-0.67-0.38-1.15V61.06c0-0.48,0.13-0.86,0.4-1.15c0.27-0.29,0.64-0.43,1.12-0.43
	c0.51,0,0.94,0.21,1.29,0.64l15.76,20.99V61.06c0-0.48,0.13-0.86,0.4-1.15c0.27-0.29,0.63-0.43,1.09-0.43
	C355.28,59.48,355.64,59.62,355.89,59.91"/>
<path class="st0" d="M366.74,84.89c-1.85-1.09-3.28-2.65-4.28-4.69c-1-2.04-1.5-4.45-1.5-7.22c0-2.75,0.5-5.15,1.5-7.18
	c1-2.04,2.43-3.6,4.28-4.69c1.85-1.09,4.05-1.63,6.58-1.63c1.7,0,3.3,0.27,4.82,0.81c1.51,0.54,2.82,1.31,3.94,2.31
	c0.4,0.38,0.61,0.81,0.61,1.31c0,0.35-0.1,0.66-0.3,0.92c-0.2,0.26-0.44,0.39-0.72,0.39c-0.3,0-0.67-0.14-1.1-0.41
	c-1.29-1-2.47-1.7-3.52-2.1c-1.05-0.4-2.27-0.6-3.64-0.6c-2.94,0-5.21,0.94-6.79,2.83c-1.59,1.89-2.38,4.57-2.38,8.05
	c0,3.5,0.79,6.19,2.38,8.08c1.59,1.89,3.85,2.83,6.79,2.83c1.34,0,2.55-0.2,3.62-0.6c1.07-0.4,2.25-1.1,3.54-2.1
	c0.43-0.28,0.8-0.42,1.1-0.42c0.28,0,0.52,0.13,0.72,0.38c0.2,0.25,0.3,0.56,0.3,0.94c0,0.5-0.2,0.94-0.61,1.31
	c-1.12,1-2.43,1.77-3.94,2.31c-1.51,0.54-3.12,0.81-4.82,0.81C370.79,86.52,368.59,85.98,366.74,84.89"/>
<path class="st0" d="M387.18,86.08c-0.28-0.29-0.42-0.67-0.42-1.15V61.06c0-0.48,0.14-0.86,0.42-1.15c0.28-0.29,0.66-0.43,1.14-0.43
	c0.48,0,0.86,0.14,1.14,0.43c0.28,0.29,0.42,0.68,0.42,1.15v23.86c0,0.48-0.14,0.86-0.42,1.15c-0.28,0.29-0.66,0.43-1.14,0.43
	C387.84,86.52,387.46,86.37,387.18,86.08"/>
<path class="st0" d="M418.81,85.19c0,0.38-0.15,0.69-0.44,0.95c-0.29,0.25-0.64,0.38-1.05,0.38c-0.63,0-1.08-0.3-1.33-0.9l-2.7-6.12
	h-14.35l-2.74,6.12c-0.26,0.6-0.7,0.9-1.33,0.9c-0.41,0-0.76-0.13-1.07-0.4c-0.3-0.26-0.46-0.59-0.46-0.96c0-0.2,0.05-0.4,0.15-0.61
	l10.89-24.01c0.15-0.35,0.38-0.62,0.68-0.79c0.3-0.18,0.63-0.27,0.99-0.27c0.38,0,0.72,0.1,1.03,0.28c0.3,0.19,0.53,0.45,0.68,0.77
	l10.89,24.01C418.76,84.75,418.81,84.97,418.81,85.19 M412.15,76.92l-6.05-13.56l-6.01,13.56H412.15z"/>
<path class="st0" d="M431.57,86.1c-0.29-0.28-0.44-0.65-0.44-1.11V61.01c0-0.46,0.15-0.83,0.44-1.11c0.29-0.28,0.68-0.42,1.16-0.42
	h7.42c4.29,0,7.6,1.17,9.95,3.51c2.35,2.34,3.52,5.67,3.52,9.99c0,4.32-1.18,7.66-3.54,10.01c-2.36,2.35-5.67,3.53-9.93,3.53h-7.42
	C432.25,86.52,431.87,86.38,431.57,86.1 M439.97,83.84c6.95,0,10.43-3.62,10.43-10.85c0-7.21-3.48-10.82-10.43-10.82h-5.71v21.67
	H439.97z"/>
<path class="st0" d="M458.75,86.1c-0.29-0.28-0.44-0.65-0.44-1.11V61.01c0-0.46,0.15-0.83,0.44-1.11c0.29-0.28,0.68-0.42,1.16-0.42
	h14.24c0.46,0,0.81,0.12,1.07,0.35c0.25,0.23,0.38,0.55,0.38,0.96c0,0.41-0.13,0.73-0.38,0.96c-0.25,0.23-0.61,0.35-1.07,0.35H461.4
	v9.4h11.99c0.46,0,0.81,0.12,1.07,0.35c0.25,0.23,0.38,0.55,0.38,0.96c0,0.41-0.13,0.73-0.38,0.96c-0.26,0.23-0.61,0.35-1.07,0.35
	H461.4v9.82h12.75c0.46,0,0.81,0.11,1.07,0.32c0.25,0.22,0.38,0.54,0.38,0.98c0,0.41-0.13,0.73-0.38,0.96
	c-0.25,0.23-0.61,0.35-1.07,0.35h-14.24C459.43,86.52,459.04,86.38,458.75,86.1"/>
<path class="st0" d="M488.82,86.12c-0.29-0.26-0.44-0.61-0.44-1.05v-24c0-0.48,0.14-0.87,0.42-1.16c0.28-0.29,0.66-0.44,1.14-0.44
	c0.48,0,0.86,0.15,1.14,0.44c0.28,0.29,0.42,0.68,0.42,1.16v22.78h12.29c0.46,0,0.81,0.11,1.07,0.34s0.38,0.56,0.38,0.99
	c0,0.43-0.13,0.76-0.38,0.99s-0.61,0.34-1.07,0.34H489.9C489.47,86.52,489.11,86.39,488.82,86.12"/>
<path class="st0" d="M530.66,85.19c0,0.38-0.15,0.69-0.44,0.95c-0.29,0.25-0.64,0.38-1.05,0.38c-0.63,0-1.08-0.3-1.33-0.9l-2.7-6.12
	H510.8l-2.74,6.12c-0.26,0.6-0.7,0.9-1.33,0.9c-0.41,0-0.76-0.13-1.07-0.4c-0.3-0.26-0.46-0.59-0.46-0.96c0-0.2,0.05-0.4,0.15-0.61
	l10.89-24.01c0.15-0.35,0.38-0.62,0.68-0.79c0.3-0.18,0.63-0.27,0.99-0.27c0.38,0,0.72,0.1,1.03,0.28c0.3,0.19,0.53,0.45,0.68,0.77
	l10.89,24.01C530.61,84.75,530.66,84.97,530.66,85.19 M524.01,76.92l-6.05-13.56l-6.01,13.56H524.01z"/>
<path class="st1" d="M134.68,92.08c-2.01,28.56,21.53,47.55,45.38,61.05c1.78,1.01,3.99-0.27,3.99-2.32v-11.26
	c0-1.58-0.97-3-2.45-3.56c-16.03-6.08-27.76-22.28-26.89-38.8c0.82-15.49,11.88-30.33,27.16-35.9c1.31-0.48,2.18-1.74,2.18-3.14
	V48.11c0-1.64-1.83-2.62-3.18-1.7c-7.97,5.41-16.49,10.12-24.56,15.43C145.28,69.1,135.62,78.72,134.68,92.08"/>
<path class="st1" d="M95.63,80.62c-4.58,7.95-7.53,17.19-6.55,26.33c0.95,8.75,5.84,16.85,11.52,23.61
	c12.4,14.77,28.61,27.35,45.11,37.78c9.5,6,19.42,11.33,29.69,15.97c0.09,0.04,0.64,0.18,1.08,0.28c0.33,0.07,0.67,0.09,1,0.06
	l2.37-0.23c2.32,0,4.19-1.88,4.19-4.19c0-1.77-1-3.39-2.58-4.18l-0.09-0.05c-15.14-7.69-30.11-16.29-42.33-27.89
	c-21.03-19.95-32.85-51.4-18.45-77.97c12.43-22.95,40.27-30.13,58.6-47.37c0.2-0.19,0.4-0.36,0.6-0.53c2.75-2.26,4.25-5.7,4.25-9.26
	V2.56c0-1.4-1.14-2.54-2.54-2.54c-1.22,0-2.4,0.42-3.35,1.18c-13.46,10.82-26.62,21.99-39.4,33.54
	C123.42,48.59,105.91,62.78,95.63,80.62"/>
<path class="st1" d="M78.3,133.89c-12.95-19.85-11.83-42.85-0.23-63.02c14.23-24.74,39.8-44.54,60.14-62.44
	c2.42-2.13,4.77-3.86,7.26-5.77c1.14-0.87,0.52-2.65-0.88-2.65H28.99C12.98,0.02,0,13,0,29.01v126.43
	c0,16.01,12.98,28.99,28.99,28.99h100.57c1.45,0,2.04-1.89,0.82-2.7c-1.12-0.75-2.24-1.5-3.35-2.27
	C108.92,166.94,90.22,152.17,78.3,133.89"/>
<path class="st1" d="M175.01,96.86c0.03-0.19,0.08-0.37,0.12-0.56C175.16,95.98,175.16,96.01,175.01,96.86"/>
<path class="st1" d="M175.1,100.75c-0.04-0.2-0.09-0.39-0.12-0.59C175.09,100.93,175.11,100.99,175.1,100.75"/>
<path class="st1" d="M191.11,84.22c7.13,2.93,10.54,11.08,7.62,18.22c-2.93,7.13-11.08,10.54-18.22,7.62
	c-7.13-2.93-10.54-11.08-7.62-18.22C175.82,84.7,183.98,81.29,191.11,84.22"/>
</svg>
